<svg id="Шар_1" data-name="Шар 1" xmlns="http://www.w3.org/2000/svg" viewBox="0 0 328.07 191.73"><defs><style>.cls-1{fill:#20080c;}</style></defs><title>альтернативне лого</title><path class="cls-1" d="M179.68,309.72c.51,16.75,2.9,21.53-3.52,22.92-5.92,1.13-4.79-11.08-4.91-15.87-.25-1.64-1.51-2.14-3.4-2.14a62.72,62.72,0,0,0-7.31.88c-7.93,1.13-21.91,2.52-22.66,8.19-.51,4.66,2.51,16.87-2.65,16.87a4,4,0,0,1-3.9-3.53c-1.51-6.79-1-10.07-3-16.74-1.13-3.66,1.26-6.05,4.54-6.05,1.76,0,8.06-2,9.57-2.52,3.78-1.26,1.38-8.94.25-30.35-.25-3.4,0-8.94,3.9-8.94h.38A28.36,28.36,0,0,0,157,274.21c1.51,0,3.27-.26,5-.26,3.78,0,8.69,2,9.2,6.55-.38,19.52-3.65,27.08,3.27,25.69C177.67,305.69,179.56,307,179.68,309.72Zm-16.87-22.8c-.25-2-1.13-4.65-3.15-4.65-4.53,0-8.31,5.54-8.31,8.94,0,5.92,1.13,9.44,1.64,15.49.12,1.26,1.63,2.26,3.52,2.26,8.44,0,6.8-3.15,7.31-6.8C163.44,302.16,163.06,288.56,162.81,286.92Z" transform="translate(-128.02 -148.84)"/><path class="cls-1" d="M197.06,314.63c-6.55-.25-9.95-5.79-9.95-12.34.13-9.32,4.92-24.05,16.63-23.42,5.41.37,13.22,6,13.22,10.95,0,9.19-21.41,6.42-22,12,0,3.53,3.53,5.67,6.42,5.8,5,.25,12.47-5.54,16.75-5.54,1,0,2,1.63,2,2.26,0,1.14-1.64,3-4.53,4.16C209.28,311.61,203,315,197.06,314.63Zm10.83-25.82c0-2.52-4.28-4.4-5.92-4.53-1.88,0-5.41,2.64-5.41,5.29a2.88,2.88,0,0,0,3.15,3c2.26.25,7.18-1.13,8.18-2.89Z" transform="translate(-128.02 -148.84)"/><path class="cls-1" d="M262.42,281.38c-2.9,0-10.07-.5-13.22,1.77a5,5,0,0,0-2,4.4c0,6.3,1,16.38,1,22.67,0,7.43-3.9,11.84-9.7,12.85-6.92,1-11.83-.76-14.23-6.17-.12-.13-.12-.26-.12-.51A2,2,0,0,1,226,314.5c2.52,0,5.79,2.27,8.94,2.27,5.66,0,5.92-6.55,5.92-10.83A140.78,140.78,0,0,0,238,280c0-3.53,2-7.81,6.17-7.81a5.74,5.74,0,0,1,1.39.25,19.9,19.9,0,0,0,7.68,1.14c4.41,0,8.94-1.26,13.47-1.26,2.52,0,4.91,2.26,4.91,4.53,0,5.42-.12,4.16.89,13.73.5,6.8,2,14.23,2,20.15,0,1.76-1.13,6.8-4.66,6.8s-3.78-4.54-3.78-7.06l.38-2.51c0-8.82-.25-17.51-2.14-26.2A4.21,4.21,0,0,0,262.42,281.38Z" transform="translate(-128.02 -148.84)"/><path class="cls-1" d="M300.58,291.46c4,0,8.43-1.13,9.06-2.65,3.15-9.57,9.57-14,15.75-14,7.55,0,14.6,6.92,14.1,19.51s-7.93,18.52-15.49,18.52c-6.8,0-13.6-4.91-15.36-14.23-.13-.63-2.52-1.14-5-1.14-2.9,0-6.05.76-6.05,2.77,0,3.15,3.41,12.34,3.41,15.24,0,1.51-2,3.4-3.78,3.4-10.2,0-7.05-27.58-10.83-40.55a.73.73,0,0,1-.13-.5c0-2,2.52-3.78,4.53-3.78,6.18,0,6.05,11.21,6.3,17A15.28,15.28,0,0,0,300.58,291.46Zm23,14.73c4.28,0,8.94-5.54,8.94-12.47,0-6.17-2.52-11.83-8.56-11.83-2.14,0-9.19,5.92-6.42,8.81,2.14,2.14.88,4.79-.88,7.18C318,303.8,320.73,306.19,323.62,306.19Z" transform="translate(-128.02 -148.84)"/><path class="cls-1" d="M361.91,302.16c0-6.29.75-11.21-.13-18.26v-.5a5.22,5.22,0,0,1,4.91-5.16c3.53,0,4.91-.13,8.56-.13,3.15,0,6.3-.5,9.32-.5,3.91,0,8.19,4.4,8.19,8.31,0,2.77-1.76,15.61-1,16.62.63.76,1.89.88,4.53.5,5-.88,5.42,6.17,5.42,11.09,0,5.29.76,13.22-4.28,13.22-1.51,0-4.41.25-4.41-4.28,0-6.3,3.53-13.86-2.27-12.72-21.28,3.9-36.26,4.15-37.4,7.93-.5,2,2.14,7.43,3.65,11.46.13.38,0,.51,0,.76,0,1.63-2,4.15-4,4.15-3.77,0-5-4.4-6.29-7.81-.88-3.27-1.89-6.54-1.89-9.94a6.15,6.15,0,0,1,1.13-3.78c1.51-1.51,10.45-3.28,13-4C361.4,308.08,361.91,304.68,361.91,302.16Zm11.2,4.54c9.45,0,11.21-1.52,11.21-6.68,0-6.3.76-8.94.76-11.58a3.75,3.75,0,0,0-3.28-3.15c-6.67.75-11.58-.88-11.58,3,0,5.16-.38,12-.38,13.35a7.69,7.69,0,0,0,.88,4.15A5.06,5.06,0,0,0,373.11,306.7Z" transform="translate(-128.02 -148.84)"/><path class="cls-1" d="M448.67,315.26a3.11,3.11,0,0,1-2.52,1.26,2.73,2.73,0,0,1-2.64-1.76c-.76-2.9-3-25.95-4.66-25.69-2.39.37-14.36,24.8-21.54,27.07-4.15,1.26-6-3.53-6-7.3-.38-9.2.38-19.77-.25-29.09-.13-.88,1.64-2.14,3.15-2.14,1,0,2,.63,2.26,2.39.88,5.67.88,15.87,1.39,22.29.38,1.76.38,2.39,1.76,1,4.54-4.16,10.45-18.39,15.11-23.43,1.26-1.38,3.4-1.89,5.54-1.89,3.4,0,6.8,1.26,7.06,2.9C448.17,287.05,448.92,310.6,448.67,315.26Z" transform="translate(-128.02 -148.84)"/><path class="cls-1" d="M361.13,263a120.57,120.57,0,0,1-28.83-3.69c-18.49-4.57-36-12.62-52.89-20.42l-21.3-9.81a4.14,4.14,0,0,1,1-7.83,58.87,58.87,0,0,1,14.94-.61l-16.78-9.39c-4.26-2.39-6.1-5.3-5.16-8.21a4.65,4.65,0,0,1,2.6-2.87c2.52-1.12,6.07-.32,8.55.8L282,209.37l-14.59-14.5c-2.22-2.21-5-5-5-9.06a6,6,0,0,1,3.11-5.44c4.1-2.2,8.14,1.55,9.66,3l12.43,11.56a52.89,52.89,0,0,1-6.38-15.53,4.71,4.71,0,0,1,8.15-4.05l19.35,22.07a51.61,51.61,0,0,1,.1-10.17,6.92,6.92,0,0,1,13.63-.74c.55,2.47.95,5.05,1.34,7.54a90.26,90.26,0,0,0,1.79,9.33,54.76,54.76,0,0,0,35.73-.3c13.31-4.81,23.59-13.23,28.2-23.12l13.15-28.22a4.85,4.85,0,0,1,4.59-2.85,3.85,3.85,0,0,1,3.06,1.65c1.38,1.93,1.15,5.06.54,7.16l-6.47,22.23,26.88-10.63c2.63-1,5.9-2.33,9.36-1.17a6.11,6.11,0,0,1,4.11,4.51c.47,2.36-.34,5.77-6.81,8.61l-3.28,1.44,6.47-1.28c5.37-1.06,9,.07,10.32,3.2a5.07,5.07,0,0,1-.08,4.11c-1.51,3.37-6,5.18-7.37,5.65l-4.3,1.51,8.11-1.33c2.28-.38,5.32-.22,7,1.34a4,4,0,0,1,1.31,3.32,5,5,0,0,1-3.59,4.41l-14.23,4.21a26.56,26.56,0,0,1,7.21,3.1,5,5,0,0,1-2,9.21l-14.86,2c-5.29,16.71-19.37,29.69-39.69,36.58A86.62,86.62,0,0,1,361.13,263ZM269,223.63a55.83,55.83,0,0,0-9.32.78.92.92,0,0,0-.22,1.73l21.3,9.82c16.78,7.73,34.12,15.72,52.31,20.22,20.13,5,39.08,4.78,54.81-.55,18.73-6.35,31.85-18,37.17-33l-4.58.62c-25,3.36-53.33,7.18-79.43-.83-4-1.23-8.61-2.94-12.12-6.27a23.44,23.44,0,0,1-6.21-10.84,1.56,1.56,0,0,1-.14-.48,87.15,87.15,0,0,1-2-10.27c-.38-2.45-.78-5-1.3-7.34a3.7,3.7,0,0,0-7.29.39,48.17,48.17,0,0,0,.65,14.64,1.61,1.61,0,0,1-2.79,1.38l-22.93-26.15a1.44,1.44,0,0,0-1.8-.34,1.38,1.38,0,0,0-.78,1.6c1.88,8.87,7.27,17.09,13.1,25.42a1.61,1.61,0,0,1-2.42,2.1l-22.07-20.52c-2.64-2.46-4.53-3.24-6-2.48a2.85,2.85,0,0,0-1.41,2.57c0,2.58,1.71,4.45,4.08,6.8l20.89,20.76a1.61,1.61,0,0,1-1.8,2.61L262,203.89c-2.25-1-4.69-1.34-5.93-.79a1.43,1.43,0,0,0-.83.92c-.6,1.86,2.65,3.85,3.67,4.41l24.85,13.91a1.61,1.61,0,0,1-1.18,3A55.44,55.44,0,0,0,269,223.63Zm57.74-16.52a18.47,18.47,0,0,0,4.39,6.66c3,2.87,7.19,4.4,10.85,5.53,25.43,7.79,53.39,4,78.06.71l23-3.1a1.74,1.74,0,0,0,1.52-1.41,1.72,1.72,0,0,0-.78-1.87,22.79,22.79,0,0,0-13.9-3.39,1.61,1.61,0,0,1-.6-3.15l22.3-6.6a1.73,1.73,0,0,0,1.29-1.52.78.78,0,0,0-.26-.73c-.68-.62-2.55-.86-4.37-.56L422,202a1.61,1.61,0,0,1-.79-3.11l21.62-7.6c2.66-.93,4.87-2.51,5.51-3.92a1.9,1.9,0,0,0,0-1.58c-.88-2.16-5-1.6-6.71-1.26l-20.9,4.13a1.61,1.61,0,0,1-1-3l16.75-7.35c2.49-1.09,5.37-2.85,4.94-5a2.87,2.87,0,0,0-2-2.08c-2.34-.79-4.78.18-7.15,1.11l-29.93,11.84a1.6,1.6,0,0,1-1.68-.31,1.62,1.62,0,0,1-.46-1.64l7.39-25.38c.5-1.71.47-3.64-.07-4.4a.67.67,0,0,0-.59-.29,1.63,1.63,0,0,0-1.52,1l-13.15,28.22c-6.81,14.59-21.74,21.79-30,24.79A58.16,58.16,0,0,1,326.74,207.11Z" transform="translate(-128.02 -148.84)"/><ellipse class="cls-1" cx="402.85" cy="237.67" rx="3.65" ry="2.07" transform="translate(-141.23 302.53) rotate(-57.73)"/><ellipse class="cls-1" cx="411.02" cy="236.58" rx="3.65" ry="2.07" transform="translate(-136.51 308.93) rotate(-57.73)"/></svg>