<svg id="Шар_1" data-name="Шар 1" xmlns="http://www.w3.org/2000/svg" viewBox="0 0 464.92 259.9"><defs><style>.cls-1{fill:#f5e2d1;}</style></defs><title>логознак - світлий</title><path class="cls-1" d="M300.75,412.57a274.45,274.45,0,0,1-65.65-8.39c-42.1-10.4-81.91-28.75-120.42-46.5l-48.5-22.35a9.42,9.42,0,0,1,2.34-17.83,135,135,0,0,1,34-1.39L64.34,294.75c-9.72-5.44-13.89-12.08-11.75-18.69a10.53,10.53,0,0,1,5.91-6.54c5.74-2.55,13.83-.73,19.48,1.82l42.48,19.15-33.23-33c-5.06-5-11.35-11.28-11.45-20.62a13.75,13.75,0,0,1,7.08-12.38c9.34-5,18.53,3.52,22,6.74l28.31,26.31c-6.62-11.38-11.91-23-14.53-35.35a10.72,10.72,0,0,1,18.56-9.23l44.07,50.25a117.13,117.13,0,0,1,.22-23.15c1-9.15,8.13-13.62,14.77-14s14.26,3.29,16.26,12.31c1.25,5.62,2.17,11.48,3.06,17.16a208.56,208.56,0,0,0,4.06,21.25,124.69,124.69,0,0,0,81.35-.69c30.32-10.94,53.72-30.13,64.21-52.65l29.95-64.24a11,11,0,0,1,10.45-6.49,8.77,8.77,0,0,1,7,3.74c3.14,4.4,2.63,11.54,1.24,16.32l-14.73,50.61,61.2-24.2c6-2.37,13.44-5.32,21.3-2.66a13.92,13.92,0,0,1,9.37,10.26c1.06,5.38-.77,13.15-15.5,19.61L468,229.65l14.74-2.92c12.23-2.42,20.57.17,23.49,7.28a11.61,11.61,0,0,1-.18,9.38c-3.44,7.66-13.72,11.77-16.8,12.85l-9.79,3.44,18.48-3c5.18-.85,12.11-.49,16.05,3.06a9.1,9.1,0,0,1,3,7.56,11.31,11.31,0,0,1-8.18,10l-32.4,9.59A60.35,60.35,0,0,1,492.78,294a11.21,11.21,0,0,1,5.1,12,11.35,11.35,0,0,1-9.66,9l-33.84,4.55c-12.05,38-44.09,67.58-90.37,83.27C344.7,409.3,323.39,412.57,300.75,412.57ZM91,323a126.5,126.5,0,0,0-21.21,1.78,2.08,2.08,0,0,0-.5,3.94L117.75,351c38.19,17.61,77.69,35.81,119.11,46,45.83,11.32,89,10.89,124.8-1.25,42.64-14.46,72.51-41.07,84.62-75.24L435.86,322c-56.92,7.66-121.43,16.35-180.86-1.88-9.16-2.8-19.6-6.7-27.61-14.27-7.22-6.83-11.39-15.41-14.13-24.7a3.67,3.67,0,0,1-.32-1.07,201,201,0,0,1-4.61-23.41c-.88-5.56-1.78-11.31-3-16.7a8.42,8.42,0,0,0-16.59.88,108.92,108.92,0,0,0,1.48,33.35,3.67,3.67,0,0,1-6.35,3.14l-52.22-59.55a3.29,3.29,0,0,0-4.1-.78,3.21,3.21,0,0,0-1.78,3.66c4.29,20.19,16.56,38.9,29.83,57.88a3.66,3.66,0,0,1-5.5,4.78L99.86,236.57c-6-5.59-10.31-7.39-13.53-5.66a6.53,6.53,0,0,0-3.22,5.85c.06,5.89,3.89,10.14,9.29,15.51L140,299.53a3.66,3.66,0,0,1-4.09,5.94L75,278c-5.12-2.31-10.67-3-13.49-1.8a3.2,3.2,0,0,0-1.91,2.1c-1.36,4.21,6,8.74,8.36,10L124.51,320a3.66,3.66,0,0,1-2.69,6.75A125.65,125.65,0,0,0,91,323Zm131.48-37.61a42.19,42.19,0,0,0,10,15.16c6.91,6.53,16.37,10,24.72,12.59,57.89,17.75,121.55,9.18,177.73,1.62l52.36-7a4,4,0,0,0,3.47-3.23,3.9,3.9,0,0,0-1.79-4.24,51.84,51.84,0,0,0-31.64-7.73,3.67,3.67,0,0,1-1.36-7.17l50.76-15a4,4,0,0,0,2.95-3.47,1.8,1.8,0,0,0-.6-1.67c-1.54-1.4-5.81-1.94-9.94-1.27l-59.73,9.82a3.66,3.66,0,0,1-1.81-7.07l49.24-17.29c6-2.13,11.09-5.72,12.54-8.94a4.32,4.32,0,0,0,.08-3.6c-2-4.92-11.37-3.65-15.29-2.87l-47.59,9.42a3.66,3.66,0,0,1-2.18-7l38.13-16.73c5.68-2.49,12.24-6.5,11.26-11.48a6.57,6.57,0,0,0-4.52-4.73c-5.33-1.8-10.89.39-16.27,2.52l-68.15,27a3.67,3.67,0,0,1-4.87-4.43l16.82-57.79c1.14-3.9,1.07-8.3-.16-10a1.52,1.52,0,0,0-1.35-.68,3.77,3.77,0,0,0-3.46,2.26l-29.94,64.25c-15.49,33.23-49.48,49.63-68.37,56.45A132.41,132.41,0,0,1,222.44,285.34Z" transform="translate(-52.04 -152.68)"/><ellipse class="cls-1" cx="395.74" cy="354.92" rx="8.32" ry="4.7" transform="translate(-167.7 347.33) rotate(-57.73)"/><ellipse class="cls-1" cx="414.33" cy="352.45" rx="8.32" ry="4.7" transform="matrix(0.53, -0.85, 0.85, 0.53, -156.95, 361.89)"/></svg>