<svg id="Шар_1" data-name="Шар 1" xmlns="http://www.w3.org/2000/svg" xmlns:xlink="http://www.w3.org/1999/xlink" viewBox="0 0 569.24 570.65"><defs><style>.cls-1{fill:none;}.cls-2{fill:#20080c;}.cls-3{fill:url(#Новий_зразок_10);}</style><pattern id="Новий_зразок_10" data-name="Новий зразок 10" width="734.17" height="632.13" patternTransform="translate(-12.85 -63.07) scale(0.32)" patternUnits="userSpaceOnUse" viewBox="0 0 734.17 632.13"><rect class="cls-1" width="734.17" height="632.13"/><path class="cls-2" d="M300.14,469.59c30.65-10.39,51.87-30,59.85-55.15l22.42-3a7.56,7.56,0,0,0,3-13.89,39.92,39.92,0,0,0-10.88-4.68L396,386.5a7.51,7.51,0,0,0,5.42-6.65,6,6,0,0,0-2-5c-2.6-2.35-7.19-2.59-10.62-2l-12.24,2,6.48-2.28c2-.71,8.85-3.44,11.13-8.51a7.72,7.72,0,0,0,.12-6.21c-1.93-4.72-7.46-6.43-15.56-4.82L369,354.94l4.94-2.17c9.76-4.28,11-9.43,10.27-13A9.18,9.18,0,0,0,378,333c-5.21-1.77-10.15.19-14.11,1.75l-40.54,16,9.76-33.51c.92-3.17,1.26-7.9-.82-10.81a5.81,5.81,0,0,0-4.61-2.48,7.27,7.27,0,0,0-6.92,4.29l-19.84,42.55c-6.95,14.92-22.45,27.63-42.52,34.88a82.66,82.66,0,0,1-53.89.45,139.89,139.89,0,0,1-2.69-14.07c-.59-3.76-1.2-7.65-2-11.37a10.43,10.43,0,0,0-20.55,1.11,77.15,77.15,0,0,0-.15,15.34l-29.19-33.28A7.1,7.1,0,0,0,137.62,350c1.74,8.17,5.24,15.88,9.62,23.41L128.49,356c-2.29-2.13-8.37-7.79-14.56-4.47a9.08,9.08,0,0,0-4.69,8.2c.07,6.19,4.23,10.33,7.58,13.66l22,21.87-28.14-12.68c-3.74-1.69-9.09-2.89-12.9-1.21a7,7,0,0,0-3.91,4.33c-1.42,4.39,1.34,8.79,7.78,12.39L127,412.21a88.56,88.56,0,0,0-22.53.92,6.23,6.23,0,0,0-1.55,11.8L135,439.74c25.51,11.75,51.88,23.9,79.76,30.79a181.75,181.75,0,0,0,43.48,5.56A130.56,130.56,0,0,0,300.14,469.59ZM139.73,419.26a2.43,2.43,0,0,0,1.79-4.47l-37.49-21c-1.53-.85-6.44-3.86-5.53-6.65a2.15,2.15,0,0,1,1.26-1.39c1.87-.83,5.54-.34,8.94,1.19L149,405.16a2.43,2.43,0,0,0,2.71-3.94l-31.5-31.3c-3.58-3.56-6.12-6.37-6.16-10.27a4.33,4.33,0,0,1,2.13-3.87c2.14-1.15,5,0,9,3.74l33.29,31a2.43,2.43,0,0,0,3.64-3.17c-8.79-12.57-16.91-25-19.75-38.33a2.11,2.11,0,0,1,1.18-2.42,2.15,2.15,0,0,1,2.71.52l34.59,39.43a2.42,2.42,0,0,0,4.2-2.07,72.64,72.64,0,0,1-1-22.09,5.58,5.58,0,0,1,11-.59c.79,3.57,1.39,7.38,2,11.07a130.3,130.3,0,0,0,3.06,15.5,2.42,2.42,0,0,0,.2.71c1.82,6.15,4.58,11.83,9.36,16.36,5.31,5,12.22,7.59,18.29,9.45,39.36,12.07,82.09,6.32,119.78,1.25l6.91-.93c-8,22.63-27.8,40.26-56.05,49.83-23.72,8-52.3,8.33-82.66.83C188.49,459,162.33,447,137,435.33l-32.12-14.81a1.32,1.32,0,0,1-.79-1.44,1.31,1.31,0,0,1,1.12-1.17,84,84,0,0,1,34.49,1.35Zm120.31-29c12.51-4.51,35-15.38,45.28-37.39l19.84-42.55a2.49,2.49,0,0,1,2.29-1.5,1,1,0,0,1,.89.46c.81,1.13.86,4.05.11,6.63l-11.14,38.27a2.42,2.42,0,0,0,3.22,2.94l45.14-17.85c3.56-1.41,7.25-2.87,10.77-1.68a4.36,4.36,0,0,1,3,3.14c.65,3.3-3.7,5.95-7.46,7.6L346.73,359.4a2.42,2.42,0,0,0,1.44,4.6l31.52-6.23c2.6-.52,8.79-1.36,10.13,1.9a2.83,2.83,0,0,1-.06,2.38c-1,2.13-4.29,4.51-8.3,5.92l-32.61,11.46a2.42,2.42,0,0,0,1.2,4.68l39.56-6.5c2.73-.45,5.56-.09,6.58.83a1.21,1.21,0,0,1,.39,1.11,2.63,2.63,0,0,1-1.94,2.3L361,391.79a2.43,2.43,0,0,0,.9,4.75,34.28,34.28,0,0,1,21,5.12,2.6,2.6,0,0,1,1.19,2.81,2.68,2.68,0,0,1-2.3,2.14l-34.68,4.67c-37.21,5-79.38,10.68-117.72-1.08-5.53-1.69-11.79-4-16.37-8.34a27.81,27.81,0,0,1-6.61-10A87.6,87.6,0,0,0,260,390.25Z"/><ellipse class="cls-2" cx="321.16" cy="437.91" rx="3.11" ry="5.51" transform="translate(-184.21 239.15) rotate(-32.27)"/><ellipse class="cls-2" cx="333.47" cy="436.27" rx="3.11" ry="5.51" transform="matrix(0.85, -0.53, 0.53, 0.85, -181.44, 245.47)"/><path class="cls-2" d="M111.67,489.8a1.1,1.1,0,0,0,.68-.59l2-3.76,2.6,1.37,1-1.91-2.6-1.37,1.79-3.4a1.17,1.17,0,0,0,.1-.91,1.24,1.24,0,0,0-.61-.69,1.12,1.12,0,0,0-.87-.09,1.27,1.27,0,0,0-.66.62l-4.78,9.07a1.21,1.21,0,0,0-.13.88,1,1,0,0,0,.56.67A1.16,1.16,0,0,0,111.67,489.8Zm7.94,3.41a1,1,0,0,0,.06-.76L118,486.2l5.77-2a.9.9,0,0,0,.56-.52,1.16,1.16,0,0,0,0-.82,1,1,0,0,0-.63-.6,1.3,1.3,0,0,0-.92-.07l-7.4,2.76,2.14,7.91a1.38,1.38,0,0,0,1.46.83A1,1,0,0,0,119.61,493.21Z"/><path class="cls-2" d="M129,497.85a6,6,0,0,0,2.86-1.18,6.84,6.84,0,0,0,2.06-2.64l.81.38a6.42,6.42,0,0,0,.61-3.32,6.36,6.36,0,0,0-10-4.6,6.44,6.44,0,0,0-2.13,2.62,6.9,6.9,0,0,0-.66,3.27,6,6,0,0,0,1,2.95,5.8,5.8,0,0,0,5.48,2.52Zm-3.46-3.56a4.15,4.15,0,0,1-.7-2,4.79,4.79,0,0,1,1.85-4,4.05,4.05,0,0,1,2-.78,4.1,4.1,0,0,1,3.79,1.74,4,4,0,0,1,.67,2,4.86,4.86,0,0,1-1.84,4,4,4,0,0,1-2,.79,4.13,4.13,0,0,1-3.79-1.74Zm6.4,5.4a1.16,1.16,0,0,0,.65-.62l2.14-4.66-1.38-1.55-1.42,2-1.47,3.19a1.19,1.19,0,0,0,1.48,1.61Z"/><path class="cls-2" d="M142.1,504.19a5.13,5.13,0,0,0,2.25.41,3.71,3.71,0,0,0,1.89-.6,3.2,3.2,0,0,0,1.2-1.5,3,3,0,0,0,.15-1.86,3.71,3.71,0,0,0-1-1.69,5.51,5.51,0,0,0-1.92-1.25l.17-.42-4.14-1.67,1.48-3.67a1.15,1.15,0,0,0,0-.91,1.18,1.18,0,0,0-.67-.62,1.07,1.07,0,0,0-.86,0,1.34,1.34,0,0,0-.66.63l-3.83,9.52a1.09,1.09,0,0,0,0,.9,1.11,1.11,0,0,0,.65.62ZM140,497.4l4.14,1.67a2.24,2.24,0,0,1,1.21,1,1.58,1.58,0,0,1,.07,1.36,1.46,1.46,0,0,1-1,.87,2.4,2.4,0,0,1-1.56-.15l-4.13-1.66Zm4.74,1.17a3.73,3.73,0,0,0,2.64.13,2.8,2.8,0,0,0,1.75-1.66,3.12,3.12,0,0,0,.19-1.77,3.46,3.46,0,0,0-.79-1.59,4.25,4.25,0,0,0-1.62-1.11l-5.34-2.15-.8,2,5.33,2.15a1.6,1.6,0,0,1,.88.77,1.27,1.27,0,0,1,0,1.08,1.73,1.73,0,0,1-.76.92,1.18,1.18,0,0,1-1.05.07l-2-.82-.47,1.15Z"/><path class="cls-2" d="M152.7,495.37a5.9,5.9,0,0,0,1.2-.88,10.73,10.73,0,0,0,1.13-1.21,4.52,4.52,0,0,0,.72-1.21,2.68,2.68,0,0,0,.15-1.53,1.26,1.26,0,0,0-.82-1,1.42,1.42,0,0,0-1.07,0,1.31,1.31,0,0,0-.73.78,3.23,3.23,0,0,0-.21.9c0,.27-.06.56-.11.85a3.39,3.39,0,0,1-.37,1,7,7,0,0,1-1,1.26.75.75,0,0,0-.22.67.61.61,0,0,0,.41.51A1.15,1.15,0,0,0,152.7,495.37Z"/><path class="cls-2" d="M154,508.72a1.12,1.12,0,0,0,1.07-.14l5.31-3.36-2.89-1-3.84,2.55a1.25,1.25,0,0,0-.49.58.87.87,0,0,0,.09.79A1.5,1.5,0,0,0,154,508.72ZM161.8,511a1.25,1.25,0,0,0,.59-.68l3.33-9.7a1.19,1.19,0,0,0,0-.91,1.18,1.18,0,0,0-.7-.58l-3.76-1.29a4.75,4.75,0,0,0-2.42-.23,4.25,4.25,0,0,0-2,.92,4.15,4.15,0,0,0-1.26,1.88,3.57,3.57,0,0,0,.82,3.78,4.73,4.73,0,0,0,1.89,1.16l-.1.28,3.07,1-1,2.88a1.14,1.14,0,0,0,0,.89,1.19,1.19,0,0,0,1.55.55Zm-4-8.16a1.94,1.94,0,0,1-.15-1.7,1.89,1.89,0,0,1,1.14-1.2,2.43,2.43,0,0,1,1.72,0l2.69.92-1.38,4-2.69-.93A2.36,2.36,0,0,1,157.81,502.87Z"/><path class="cls-2" d="M167.08,518.29a1.17,1.17,0,0,0,.54-.72l1.67-6a5.83,5.83,0,0,0,1.46,2A5.47,5.47,0,0,0,173,514.8a5.55,5.55,0,0,0,3.13,0,5.88,5.88,0,0,0,2.64-1.62,6.82,6.82,0,0,0,1.62-2.93,6.34,6.34,0,0,0,.07-3.37,6.47,6.47,0,0,0-7.79-4.56,6.32,6.32,0,0,0-2.79,1.6,6.59,6.59,0,0,0-1.69,2.92l-2.83,10.1a1.13,1.13,0,0,0,.81,1.44A1.1,1.1,0,0,0,167.08,518.29Zm4.18-6.71a4.12,4.12,0,0,1-1-1.88,4.92,4.92,0,0,1,1.19-4.25,4,4,0,0,1,1.83-1.09,3.84,3.84,0,0,1,2.15,0,4,4,0,0,1,1.87,1.1,4.22,4.22,0,0,1,1,1.88,4.59,4.59,0,0,1-.08,2.29,4.47,4.47,0,0,1-1.11,2,4,4,0,0,1-1.83,1.09,4.16,4.16,0,0,1-4-1.12Z"/><path class="cls-2" d="M184.71,517.35a1.13,1.13,0,0,0,.49-.75l2.14-10a1.14,1.14,0,0,0-.13-.9,1.17,1.17,0,0,0-.77-.5,1.05,1.05,0,0,0-.86.15,1.2,1.2,0,0,0-.49.77l-2.13,10a1.15,1.15,0,0,0,.12.88,1.08,1.08,0,0,0,.73.5A1.14,1.14,0,0,0,184.71,517.35Zm9-3.36.43-2-7.89-1.69-.43,2Zm.23,5.33a1.19,1.19,0,0,0,.46-.76l2.14-10a1.16,1.16,0,0,0-.11-.89,1.08,1.08,0,0,0-.74-.49,1.18,1.18,0,0,0-.89.14,1.16,1.16,0,0,0-.51.76l-2.14,10a1.14,1.14,0,0,0,.15.89,1.15,1.15,0,0,0,.76.5A1,1,0,0,0,193.94,519.32Z"/><path class="cls-2" d="M199.51,520.66a1.14,1.14,0,0,0,1-.33l4.63-4.24-3-.47-3.33,3.19a1.24,1.24,0,0,0-.38.66.85.85,0,0,0,.23.76A1.41,1.41,0,0,0,199.51,520.66Zm8.06.9a1.24,1.24,0,0,0,.46-.77l1.57-10.14a1.17,1.17,0,0,0-.19-.89,1.21,1.21,0,0,0-.79-.45l-3.94-.6a4.82,4.82,0,0,0-2.41.19,4.3,4.3,0,0,0-1.83,1.27,4.15,4.15,0,0,0-.91,2.07,3.58,3.58,0,0,0,1.47,3.58,4.8,4.8,0,0,0,2.06.81l0,.29,3.2.5-.46,3a1.14,1.14,0,0,0,.19.87,1.07,1.07,0,0,0,.75.46A1.11,1.11,0,0,0,207.57,521.56Zm-5.37-7.33a2,2,0,0,1-.44-1.65,1.9,1.9,0,0,1,.91-1.38,2.35,2.35,0,0,1,1.68-.33l2.82.43-.65,4.21-2.82-.44A2.33,2.33,0,0,1,202.2,514.23Z"/><path class="cls-2" d="M221.67,523.17a1.15,1.15,0,0,0,.37-.82l.54-10.22a1.17,1.17,0,1,0-2.34-.13l-.55,10.23a1.15,1.15,0,0,0,1.11,1.23A1.14,1.14,0,0,0,221.67,523.17Zm7.67.41a1.15,1.15,0,0,0,.37-.82l.35-6.57a5.81,5.81,0,0,0-.42-2.72,3.89,3.89,0,0,0-1.48-1.78,4.9,4.9,0,0,0-4.74-.18,4.5,4.5,0,0,0-1.75,1.69,5.65,5.65,0,0,0-.73,2.6l1.44.07a3,3,0,0,1,.9-2.07,2.62,2.62,0,0,1,2-.72,2.55,2.55,0,0,1,1.82.8,2.92,2.92,0,0,1,.6,2.19l-.36,6.57a1.16,1.16,0,0,0,.29.85,1.23,1.23,0,0,0,1.69.09ZM237,524a1.14,1.14,0,0,0,.36-.82l.36-6.56a6,6,0,0,0-.42-2.73,4,4,0,0,0-1.48-1.78,4.67,4.67,0,0,0-2.29-.69,5.29,5.29,0,0,0-2.69.5,4.54,4.54,0,0,0-1.9,1.68,5.19,5.19,0,0,0-.78,2.59l1.9.11a3,3,0,0,1,.89-2.08,2.59,2.59,0,0,1,2-.72,2.55,2.55,0,0,1,1.82.8,2.92,2.92,0,0,1,.6,2.19l-.36,6.57a1.15,1.15,0,0,0,1.11,1.23A1.1,1.1,0,0,0,237,524Z"/><path class="cls-2" d="M244.26,529.24a1.11,1.11,0,0,0,.29-.85l-.19-6.2a5.9,5.9,0,0,0,2,1.46,5.76,5.76,0,0,0,5.49-.45,6,6,0,0,0,2-2.34,6.71,6.71,0,0,0,.67-3.28,6.43,6.43,0,0,0-.94-3.24,6.33,6.33,0,0,0-11,.35,6.71,6.71,0,0,0-.75,3.3l.34,10.48a1.14,1.14,0,0,0,.36.83,1.15,1.15,0,0,0,.85.3A1.13,1.13,0,0,0,244.26,529.24Zm2-7.66a3.9,3.9,0,0,1-1.5-1.49,4.39,4.39,0,0,1-.6-2.18,4.55,4.55,0,0,1,.45-2.23,4.17,4.17,0,0,1,1.41-1.59,4.06,4.06,0,0,1,2.07-.63,4,4,0,0,1,2.11.5,4.14,4.14,0,0,1,1.51,1.49,4.78,4.78,0,0,1,.14,4.41,4,4,0,0,1-1.41,1.59,3.84,3.84,0,0,1-2.08.63A3.89,3.89,0,0,1,246.23,521.58Z"/><path class="cls-2" d="M267.05,522.31a6.28,6.28,0,0,0,1.83-1.22.84.84,0,0,0,.29-.75,1.12,1.12,0,0,0-.5-.7,1,1,0,0,0-.72-.17,1.29,1.29,0,0,0-.72.35,4.7,4.7,0,0,1-1.13.73,4.62,4.62,0,0,1-1.42.43,4.69,4.69,0,0,1-2.38-.32,4.22,4.22,0,0,1-1.74-1.38,4.34,4.34,0,0,1-.82-2.18,5.16,5.16,0,0,1,.23-2.31,3.75,3.75,0,0,1,1.24-1.72,4.17,4.17,0,0,1,2.16-.81,3.35,3.35,0,0,1,3.39,1.6,4.9,4.9,0,0,1,.69,2l.86-.74-9.14,1,.2,1.83,9.21-1a1.1,1.1,0,0,0,.73-.37,1,1,0,0,0,.21-.75,7.2,7.2,0,0,0-1-3.12,5.24,5.24,0,0,0-2.19-2,5.81,5.81,0,0,0-3.15-.45,6.3,6.3,0,0,0-3.12,1.16,5.82,5.82,0,0,0-1.93,2.48,6.8,6.8,0,0,0-.43,3.4,6.36,6.36,0,0,0,1.2,3.18,5.88,5.88,0,0,0,2.55,2,6.94,6.94,0,0,0,3.46.44A6.59,6.59,0,0,0,267.05,522.31Z"/><path class="cls-2" d="M276,521.06a1.12,1.12,0,0,0,.15-.88l-2-10a1.13,1.13,0,0,0-.48-.77,1.15,1.15,0,0,0-.9-.15,1.2,1.2,0,0,0-.76.48,1.16,1.16,0,0,0-.16.9l2,10a1.13,1.13,0,0,0,1.38.92A1.14,1.14,0,0,0,276,521.06Zm7.53-1.52a1.23,1.23,0,0,0,.15-.89l-1.31-6.45a6,6,0,0,0-1.09-2.53,3.89,3.89,0,0,0-1.88-1.35,4.68,4.68,0,0,0-2.39-.1,4.52,4.52,0,0,0-2.24,1.11,4.47,4.47,0,0,0-1.27,2.08,5.56,5.56,0,0,0-.06,2.7l1.42-.29a3,3,0,0,1,.34-2.23,2.6,2.6,0,0,1,1.78-1.2,2.51,2.51,0,0,1,2,.31,2.91,2.91,0,0,1,1.13,2l1.31,6.45a1.14,1.14,0,0,0,1.38.91A1.13,1.13,0,0,0,283.56,519.54Zm7.5-1.53a1.12,1.12,0,0,0,.15-.88l-1.31-6.45a5.92,5.92,0,0,0-1.09-2.54,3.89,3.89,0,0,0-1.88-1.34,4.56,4.56,0,0,0-2.39-.1,5.35,5.35,0,0,0-2.47,1.16,4.51,4.51,0,0,0-1.42,2.1,5.25,5.25,0,0,0-.1,2.71l1.87-.38a3,3,0,0,1,.33-2.22,2.55,2.55,0,0,1,1.76-1.21,2.58,2.58,0,0,1,2,.32,2.92,2.92,0,0,1,1.13,2l1.3,6.44a1.16,1.16,0,0,0,.5.76,1.14,1.14,0,0,0,.89.16A1.12,1.12,0,0,0,291.06,518Z"/><path class="cls-2" d="M304.28,514.05a4.84,4.84,0,0,0,1.41-2.16,4.22,4.22,0,0,0,0-2.51,3.91,3.91,0,0,0-1.33-2,4.23,4.23,0,0,0-2.22-.9,6.43,6.43,0,0,0-2.71.27l-3.62,1.08-.74-2.47a1.11,1.11,0,0,0-.55-.71,1.12,1.12,0,0,0-.9-.08,1.1,1.1,0,0,0-.67.54,1.31,1.31,0,0,0-.13.89l1.88,6.31a5,5,0,0,0,1.44,2.37,4.7,4.7,0,0,0,2.39,1.12,7.61,7.61,0,0,0,5.77-1.71Zm-5.08-.51a3.06,3.06,0,0,1-1.44-.68,2.65,2.65,0,0,1-.85-1.31l-.55-1.87L300,508.6a3.67,3.67,0,0,1,2.22,0,2,2,0,0,1,1.32,1.46,2.1,2.1,0,0,1-.4,2.1,4.55,4.55,0,0,1-2.18,1.31A3.55,3.55,0,0,1,299.2,513.54Z"/><path class="cls-2" d="M318.74,508.57a6,6,0,0,0,1.29-2.9,7.19,7.19,0,0,0-2.36-6.19,5.93,5.93,0,0,0-2.9-1.32,6.42,6.42,0,0,0-3.34.4,6.58,6.58,0,0,0-2.79,1.92,6,6,0,0,0-1.3,2.91,7.17,7.17,0,0,0,2.35,6.19,6,6,0,0,0,2.89,1.32,7.11,7.11,0,0,0,6.16-2.33Zm-5.7.22a4,4,0,0,1-1.89-.91,4.44,4.44,0,0,1-1.28-1.89,4.63,4.63,0,0,1-.3-2.29,4,4,0,0,1,.81-1.94,4.3,4.3,0,0,1,4-1.5,3.82,3.82,0,0,1,1.88.92,5.09,5.09,0,0,1,1.59,4.18,3.92,3.92,0,0,1-.81,1.93,4.3,4.3,0,0,1-4,1.5Z"/><path class="cls-2" d="M319.31,493a1.31,1.31,0,0,0,0-1.06,1.32,1.32,0,0,0-.77-.71,1.28,1.28,0,0,0-1,0,1.32,1.32,0,0,0-.73.77,1.35,1.35,0,0,0,.78,1.78,1.33,1.33,0,0,0,1.07,0A1.38,1.38,0,0,0,319.31,493Zm8.11,12.37a1.18,1.18,0,0,0-.05-.9l-4.12-9.37a1.11,1.11,0,0,0-1.55-.6,1.12,1.12,0,0,0-.6,1.55l4.13,9.36a1.15,1.15,0,0,0,.64.64,1.26,1.26,0,0,0,1.55-.68ZM324,490.9a1.33,1.33,0,0,0,0-1.07,1.35,1.35,0,0,0-.77-.71,1.32,1.32,0,0,0-1.05,0,1.29,1.29,0,0,0-.73.77,1.37,1.37,0,0,0,.78,1.78,1.39,1.39,0,0,0,1.78-.78Z"/><path class="cls-2" d="M346.56,496.5a.91.91,0,0,0,0-.74,1.23,1.23,0,0,0-.65-.59l-6.14-2.8-.78-.24-5.57-2.53a1.08,1.08,0,0,0-1,0A.91.91,0,0,0,332,491a1.37,1.37,0,0,0,.63.58l5.66,2.54,1.1.39,5.72,2.62a.9.9,0,0,0,.48.1,1.33,1.33,0,0,0,.43-.13A1,1,0,0,0,346.56,496.5Zm-7.89,3.68,1.31-5.73-1.87-1-1.41,6.11a1.32,1.32,0,0,0,.07.89,1,1,0,0,0,.54.51.91.91,0,0,0,.77-.05A1.07,1.07,0,0,0,338.67,500.18Zm3.2-13a1.39,1.39,0,0,0-.07-.91,1,1,0,0,0-.54-.57.9.9,0,0,0-.81.05,1.09,1.09,0,0,0-.38.27.87.87,0,0,0-.22.45l-1.21,6,2,.53Z"/><path class="cls-2" d="M356,491.78a5.36,5.36,0,0,0,1.75-1.48,3.72,3.72,0,0,0,.73-1.85,3.17,3.17,0,0,0-.4-1.88,2.93,2.93,0,0,0-1.34-1.29,3.59,3.59,0,0,0-1.92-.33,5.44,5.44,0,0,0-2.18.7l-.22-.41-3.91,2.15-1.9-3.47a1.18,1.18,0,0,0-.69-.6,1.16,1.16,0,0,0-.9.13,1.09,1.09,0,0,0-.56.67,1.29,1.29,0,0,0,.08.9l4.93,9a1.13,1.13,0,0,0,.69.58,1.15,1.15,0,0,0,.9-.12Zm-2.66-5.63a3.64,3.64,0,0,0,1.77-1.95,2.8,2.8,0,0,0-.17-2.41,3.12,3.12,0,0,0-1.25-1.27,3.35,3.35,0,0,0-1.72-.39,4.13,4.13,0,0,0-1.89.55l-5,2.76,1,1.9,5.05-2.77a1.59,1.59,0,0,1,1.15-.18,1.26,1.26,0,0,1,.86.65,1.78,1.78,0,0,1,.23,1.18,1.21,1.21,0,0,1-.62.85l-1.91,1,.59,1.09Zm-3.9,2.93,3.91-2.14a2.21,2.21,0,0,1,1.54-.3,1.54,1.54,0,0,1,1.1.82,1.4,1.4,0,0,1,.06,1.29,2.36,2.36,0,0,1-1.1,1.11L351.06,492Z"/><path class="cls-2" d="M369.47,482.73a5.17,5.17,0,0,0,.56-2.58,4.9,4.9,0,0,0-.87-2.52l-1.2.81a2.63,2.63,0,0,1,.46,1.5,3.26,3.26,0,0,1-.42,1.56,3.79,3.79,0,0,1-1.24,1.32,4.18,4.18,0,0,1-1.77.71,3,3,0,0,1-1.78-.29,4.19,4.19,0,0,1-1.59-1.49l-3.19-4.67a1.13,1.13,0,0,0-.74-.51,1.15,1.15,0,0,0-.89.2,1.17,1.17,0,0,0-.5.74,1.15,1.15,0,0,0,.19.89l3.19,4.67a6.49,6.49,0,0,0,2.41,2.26,4.86,4.86,0,0,0,2.75.53,5.81,5.81,0,0,0,2.73-1A5.66,5.66,0,0,0,369.47,482.73Zm2.76-1.61a1.18,1.18,0,0,0-.21-.88l-5.77-8.48a1.14,1.14,0,0,0-.75-.52,1.12,1.12,0,0,0-.88.21,1.15,1.15,0,0,0-.51.74,1.09,1.09,0,0,0,.2.89l5.77,8.48a1.15,1.15,0,0,0,.75.51,1.13,1.13,0,0,0,.88-.2A1.17,1.17,0,0,0,372.23,481.12Z"/><path class="cls-2" d="M371.8,466.61l3.32,10.83a.89.89,0,0,0,.5.64,1.27,1.27,0,0,0,.82,0,1.19,1.19,0,0,0,.73-.52,1,1,0,0,0,.08-.82L374,466.45l-.87.78,9.77,4.43a1.13,1.13,0,0,0,.85,0,1.26,1.26,0,0,0,.57-.67,1.09,1.09,0,0,0,.05-.77,1,1,0,0,0-.58-.58l-10.39-4.49a1.17,1.17,0,0,0-.71-.13,1.07,1.07,0,0,0-.58.27A1.15,1.15,0,0,0,371.8,466.61Z"/><path class="cls-2" d="M377.94,455.81a1.49,1.49,0,0,0-1.6-1.42,1.42,1.42,0,0,0-1,.5,1.52,1.52,0,0,0,1.22,2.52,1.49,1.49,0,0,0,1.05-.51A1.44,1.44,0,0,0,377.94,455.81Zm10.89,9.95a1.19,1.19,0,0,0-.42-.8l-7.65-6.8a1.12,1.12,0,0,0-1.66.1,1.22,1.22,0,0,0-.32.84,1.18,1.18,0,0,0,.42.82l7.65,6.79a1.13,1.13,0,0,0,.85.31,1.11,1.11,0,0,0,.81-.41A1.15,1.15,0,0,0,388.83,465.76Z"/><path class="cls-2" d="M575.21,308.29c3.81-6.41,4.93-13.06,3.14-18.73-2-6.26-7.77-11.48-15.13-13.63-6.91-2-14.14-1.3-19.68-.46-1.88.29-3.77.62-5.6.95a94.16,94.16,0,0,1-12.63,1.67,46.89,46.89,0,0,1-22.66-4.84c-3.17-1.56-7.14-3.71-9.71-6.42-.8-.85-1.58-1.74-2.33-2.61a33.9,33.9,0,0,0-8-7.35,18.45,18.45,0,0,0-4.48-1.93l21-14.32a25.79,25.79,0,0,0,6.78-6c2.32-3.25,2.87-7.19,1.42-10.29-2.58-5.5-9.74-6.27-15.31-4.65-5.23,1.52-9.85,4.3-14.31,7-.91.55-1.83,1.1-2.74,1.63-4.71,2.77-10.3,5.6-16,5.7-4.85.07-10.58-2.41-12.15-7.32-1.08-3.38.13-7.6,3-10.49a18.21,18.21,0,0,1,11.3-4.79l1.62-.12a22.34,22.34,0,0,0,5.37-.78c3.31-1,5.7-3.44,6.23-6.29.57-3.06-.94-6.26-4.27-9-9.16-7.59-23.5-8.27-33.35-1.59a28.28,28.28,0,0,0-11.75,19.51l-22-37.82c-.9-1.53-2.39-4.11-5.2-5a6.39,6.39,0,0,0-5.4.84,8.59,8.59,0,0,0-3.76,6c-.45,3.67,1.24,7,2.47,9.52l15.16,30.44-25.72-27.3a2.6,2.6,0,0,0-4.09.41c-2.61,4.19-3.08,9.84-1.3,15.49,1.52,4.78,4.26,8.84,6.91,12.77l19.21,28.42L370,230.06c-4.19-2.26-7.82-2-9.71.62-1,1.43-1.76,3.93.57,7.76,6.46,10.65,17.44,17.69,27.22,23.46a428.88,428.88,0,0,0,56.23,27.67c7.16,2.91,14.5,5.34,21.59,7.69l6.34,2.11c6.46,2.18,12.17,6.48,17.7,10.64,1.84,1.4,3.75,2.83,5.67,4.18,13.53,9.49,27.79,14.47,41.22,14.39,14.24-.08,27.72-6.36,35.66-16.33A35.78,35.78,0,0,0,575.21,308.29ZM367.51,234.6,408,256.44a2.6,2.6,0,0,0,3.15-.54,2.58,2.58,0,0,0,.23-3.18l-25.08-37.13c-2.45-3.62-5-7.36-6.27-11.43a15.62,15.62,0,0,1-.56-7.87l35,37.11a2.61,2.61,0,0,0,3.37.35,2.57,2.57,0,0,0,.85-3.26l-23-46.11c-1.26-2.53-2.2-4.63-2-6.6a3.44,3.44,0,0,1,1.43-2.27,1.29,1.29,0,0,1,1-.24c.87.27,1.73,1.75,2.24,2.63l27.71,47.68a2.59,2.59,0,0,0,4.71-2.1,22.53,22.53,0,0,1,35.83-24.3c1.77,1.46,2.7,3,2.49,4.09s-1.49,1.94-2.67,2.31a18.27,18.27,0,0,1-4.16.56c-.59,0-1.18.07-1.76.13a23.36,23.36,0,0,0-14.51,6.29c-4.28,4.28-6,10.45-4.28,15.7,2.33,7.31,10.4,11,17.18,10.91s13.25-3.3,18.55-6.41c.93-.54,1.86-1.1,2.79-1.66,4.37-2.63,8.5-5.11,13.08-6.44,3.53-1,7.94-.72,9.16,1.87a5.37,5.37,0,0,1-.94,5.12,21.46,21.46,0,0,1-5.5,4.71L467,256.24a2.59,2.59,0,0,0,2.88,4.3c2.9-1.88,7.11-1,10,.76h0a29.09,29.09,0,0,1,6.78,6.3c.79.91,1.6,1.85,2.47,2.77,3.14,3.31,7.63,5.75,11.19,7.51a52.14,52.14,0,0,0,25.18,5.37,99.76,99.76,0,0,0,13.32-1.75c1.8-.32,3.66-.65,5.47-.92,5-.77,11.52-1.42,17.44.31,5.72,1.67,10.19,5.58,11.64,10.22,1.32,4.19.35,9.49-2.65,14.55-6.37,10.7-19.7,17.68-34,17.76-15.61.09-29.39-7.27-38.21-13.45-1.85-1.3-3.72-2.71-5.53-4.07-5.86-4.41-11.91-9-19.17-11.42l-6.36-2.12c-7-2.32-14.27-4.72-21.27-7.57a424.14,424.14,0,0,1-55.55-27.33c-9.24-5.45-19.58-12.07-25.42-21.69a4,4,0,0,1-.79-2.07A5.47,5.47,0,0,1,367.51,234.6Z"/><path class="cls-2" d="M615.32,232.47c-3-13.05-11.1-25.73-23.46-36.69-1.76-1.55-3.6-3.08-5.38-4.55-5.33-4.41-10.84-9-14.44-14.74-1.18-1.88-2.34-3.77-3.51-5.66-3.91-6.34-7.95-12.9-12.43-19.18a427.19,427.19,0,0,0-39.87-48.22c-7.87-8.17-17.25-17.2-29.14-21.05-4.27-1.38-6.55-.1-7.71,1.22-2.15,2.42-1.56,6,1.59,9.55l23.59,26.46-32.17-12.15c-4.45-1.68-9-3.41-14.06-3.79-5.94-.45-11.35,1.29-14.86,4.78a2.57,2.57,0,0,0,.54,4.06l32.55,18.72-33.22-7.77c-2.7-.63-6.39-1.49-9.87-.22a8.55,8.55,0,0,0-5,5,6.32,6.32,0,0,0,.41,5.42c1.48,2.53,4.34,3.4,6.05,3.91l42,12.7a28.4,28.4,0,0,0-16.4,15.84c-4.29,11.07-.36,24.81,9.15,32,3.45,2.6,6.92,3.34,9.78,2.09a8.59,8.59,0,0,0,4.73-7.48,21.94,21.94,0,0,0-.45-5.38c-.09-.53-.18-1.06-.25-1.59a18.06,18.06,0,0,1,2.11-12.06c2.17-3.45,6-5.59,9.57-5.31,5.16.4,8.89,5.39,9.92,10.12,1.21,5.55-.29,11.61-1.92,16.81-.32,1-.65,2-1,3-1.61,4.94-3.28,10.05-3.57,15.46-.32,5.77,2.06,12.54,8,13.79a10.49,10.49,0,0,0,9.74-3.72,25.25,25.25,0,0,0,4.3-7.94l9.23-23.58a17.89,17.89,0,0,0,2.92,3.9h0c2.76,2.83,5.94,4.49,9,6.11,1,.53,2.07,1.08,3.08,1.66,3.24,1.87,6.24,5.24,8.49,8a46.45,46.45,0,0,1,9.9,20.86,95,95,0,0,1,1.24,12.63c.1,1.84.2,3.75.35,5.64.43,5.56,1.39,12.74,4.93,19,3.77,6.66,10.2,11.09,16.77,11.57,5.95.44,12.2-2.15,17.6-7.31a34.4,34.4,0,0,0,3.25-3.56C615.4,260.78,618.48,246.29,615.32,232.47Zm-86.64-51.19L515.86,214a21.43,21.43,0,0,1-3.36,6.4,5.38,5.38,0,0,1-4.79,2.07c-2.81-.58-4.11-4.79-3.91-8.45.25-4.74,1.74-9.31,3.32-14.15.33-1,.67-2.05,1-3.08,1.83-5.84,3.5-12.72,2-19.45s-6.9-13.57-14.58-14.17c-5.52-.42-11.16,2.61-14.38,7.73a23.15,23.15,0,0,0-2.85,15.5c.08.58.18,1.16.28,1.74a18,18,0,0,1,.39,4.15c-.09,1.24-.63,2.68-1.64,3.12s-2.74-.1-4.57-1.48a22.44,22.44,0,0,1,15.61-40.27,2.58,2.58,0,0,0,1-5l-52.94-16c-1-.29-2.62-.79-3.08-1.57a1.27,1.27,0,0,1,0-1.07,3.38,3.38,0,0,1,1.9-1.9c1.87-.69,4.13-.25,6.89.4l50.33,11.77a2.58,2.58,0,0,0,1.89-4.75l-44.25-25.45a15.82,15.82,0,0,1,7.81-1.24c4.28.32,8.52,1.92,12.62,3.47l42,15.86a2.58,2.58,0,0,0,2.86-4.12L484.85,89.72A5.31,5.31,0,0,1,483.29,87a4,4,0,0,1,2.2.3c10.74,3.47,19.57,12,27,19.71a421.73,421.73,0,0,1,39.38,47.63c4.38,6.14,8.38,12.62,12.24,18.89,1.17,1.9,2.34,3.8,3.53,5.69,4,6.48,9.88,11.31,15.52,16,1.75,1.45,3.56,2.94,5.25,4.44,8.05,7.14,18.38,18.83,21.85,34,3.17,13.84-.62,28.35-9.64,37-4.26,4.06-9.22,6.21-13.62,5.89-4.87-.36-9.71-3.8-12.65-9-3-5.35-3.88-11.8-4.27-16.83-.15-1.83-.25-3.7-.34-5.52a101.32,101.32,0,0,0-1.32-13.31,51.61,51.61,0,0,0-11-23.19c-2.53-3-5.94-6.85-9.9-9.13-1.1-.64-2.2-1.22-3.26-1.77a29.31,29.31,0,0,1-7.72-5.14h0c-2.35-2.4-4.19-6.28-3-9.52a2.57,2.57,0,0,0-1.52-3.3,2.61,2.61,0,0,0-3,.82A2.84,2.84,0,0,0,528.68,181.28Zm6,13.14Z"/><ellipse class="cls-2" cx="596.67" cy="248.46" rx="3.62" ry="6.37" transform="translate(-8.84 22.4) rotate(-2.14)"/><ellipse class="cls-2" cx="585.28" cy="250.37" rx="6.37" ry="3.62" transform="translate(230.15 778.68) rotate(-79.25)"/><ellipse class="cls-2" cx="551.24" cy="295.34" rx="6.4" ry="3.6" transform="translate(-14.12 28.02) rotate(-2.87)"/><ellipse class="cls-2" cx="553" cy="306.71" rx="3.6" ry="6.4" transform="translate(156.67 799.46) rotate(-80.2)"/><path class="cls-2" d="M620.42,601.2c-.8-1.11-3-.87-5,.54s-2.92,3.44-2.12,4.55,3,.88,5-.53S621.21,602.31,620.42,601.2Z"/><ellipse class="cls-2" cx="626.41" cy="606.23" rx="2.47" ry="4.38" transform="translate(-231.11 762.96) rotate(-54.42)"/><path class="cls-2" d="M683.82,506.69a5.51,5.51,0,0,0-.71-6.16,4.24,4.24,0,0,0-3.86-1.07,10.68,10.68,0,0,0-7.26,5.48c-3.3,6.41-1.56,15.19,4,20.44,6.56,6.13,15.91,6.44,20.9,6.08,8.57-.62,16.41-3.78,22.07-8.91,6.4-5.79,10-14.16,9.28-21.83-1-11.29-10.55-18.79-18.47-21.77-8.48-3.21-18.07-3.55-27.34-3.88l-3.9-.15-2.19-.1c-.2,3.65-1.87,7.32-3.75,10.83a228.74,228.74,0,0,1-12.56,21,5.48,5.48,0,0,1,1.7.48,4.6,4.6,0,0,1,2.64,3.2c.66,2.77-1,6.15-2.63,8.2L644.57,540.3l34.62.34c3.38,0,7.6.08,10.91,2.93a7.33,7.33,0,0,1,2.52,6.86c-.54,2.83-3,6.25-11.44,6.48l-4.29.12,7.76,1.5c6.44,1.25,10,4.16,10,8.2a6.13,6.13,0,0,1-1.95,4.54c-3.19,3.05-9,3-10.73,2.93l-5.46-.27,9.61,2.19c2.69.61,6,2.16,7.21,4.67a4.78,4.78,0,0,1,0,4.28,6,6,0,0,1-6,3.27l-17.69-1.76a31.82,31.82,0,0,1,6.6,6.71,5.9,5.9,0,0,1,.11,6.86,6,6,0,0,1-6.49,2.45l-17.39-4.49c-13.42,16.14-34.89,24.18-60.55,22.65A103.67,103.67,0,0,1,559.13,613a144.88,144.88,0,0,1-30.32-17.11c-18.45-13.42-34.21-30.26-49.46-46.54l-19.19-20.51a4.95,4.95,0,0,1,4.67-8.22,70.71,70.71,0,0,1,16.85,6.07l-14.37-18c-3.66-4.57-4.38-8.64-2-11.44a5.56,5.56,0,0,1,4.18-2c3.3-.1,6.88,2.39,9.12,4.75l16.91,17.75-9.64-22.68c-1.47-3.45-3.3-7.74-1.49-12.32a7.23,7.23,0,0,1,5.9-4.63c5.55-.59,8.33,5.4,9.38,7.65l8.57,18.44a63.71,63.71,0,0,1-.06-20.11,5.54,5.54,0,0,1,5.09-4.6,5.72,5.72,0,0,1,3,.61,91,91,0,0,1,11.39-55.44,8.15,8.15,0,0,1,0-3.19c1.27-6.53,8.79-8.12,15.68-6.82a380.41,380.41,0,0,1,124,47c3.2,1.91,6.72,4.26,8.25,8.16l3.16.15,3.87.14c9.67.35,19.67.71,28.91,4.2,12.16,4.6,20.67,14.8,21.65,26,.8,9.18-3.37,19.11-10.89,25.92a41.76,41.76,0,0,1-25,10.19c-10,.72-18.75-1.91-24.63-7.41-7.16-6.7-9.34-18-5.06-26.32a15.71,15.71,0,0,1,10.89-8.1,9.18,9.18,0,0,1,8.13,2.46,10.4,10.4,0,0,1,1.59,12,10.06,10.06,0,0,1-10.75,5.3l1-4.83A5.2,5.2,0,0,0,683.82,506.69ZM532.49,422.57l1,.66a4.28,4.28,0,0,1,.55-.6c1.23-1.15,3.15-1.08,4.83-.88,10.57,1.27,20.75,4.7,30.82,8.19q37.35,12.93,74.21,27.28c5.21,2,10.46,4.1,15.12,7.19a8.86,8.86,0,0,1,3.13,3,4.16,4.16,0,0,1,.43,1.43c2.33.22,4.67.44,7,.61a20.83,20.83,0,0,0-4.78-3.54,375.8,375.8,0,0,0-122.42-46.4c-3.62-.68-9.25-.48-9.91,2.9A.77.77,0,0,1,532.49,422.57Zm-7.92,72.31a72.34,72.34,0,0,0,7.9,16.25,62.55,62.55,0,0,1,2.77-5.86,8.28,8.28,0,0,1,15.45,5.33c-.5,3-1.22,6-1.91,9-.64,2.7-1.26,5.36-1.73,8A66.78,66.78,0,0,0,573.38,541c21,5.21,44.57-.39,62.54-14.64l8.75-8.12c9.88-10.5,17.43-23.35,23.6-34.88,1.6-3,3-6,3.17-8.77A311.58,311.58,0,0,1,535.05,433a22.14,22.14,0,0,1-4.5-3.36C519.92,449.69,517.57,474.08,524.57,494.88ZM648.3,597l-5.36-1.38c-29.26-7.56-62.41-16.12-87.76-36.79-3.9-3.18-8.22-7.15-10.62-12.43-2.16-4.76-2.49-9.76-2-14.83a1.94,1.94,0,0,1,.06-.59,106.27,106.27,0,0,1,2.4-12.32c.67-2.88,1.38-5.86,1.86-8.73a4.43,4.43,0,0,0-8.26-2.86,57.29,57.29,0,0,0-5.89,16.54,1.93,1.93,0,0,1-3.72.27l-13.63-39.37a1.72,1.72,0,0,0-1.84-1.19,1.68,1.68,0,0,0-1.6,1.43C510,495.47,512.31,507,515,518.9a1.93,1.93,0,0,1-3.63,1.24L496.15,487.4c-1.82-3.92-3.56-5.65-5.47-5.44a3.41,3.41,0,0,0-2.73,2.21c-1.13,2.88-.11,5.71,1.45,9.39L503.21,526a1.93,1.93,0,0,1-.72,2.36,1.9,1.9,0,0,1-2.45-.28L475.8,502.66c-2-2.15-4.59-3.61-6.22-3.56a1.69,1.69,0,0,0-1.34.65c-1.5,1.78,1.21,5.46,2.08,6.54L491.62,533A1.93,1.93,0,0,1,489,535.7a66.31,66.31,0,0,0-14.28-8A67.19,67.19,0,0,0,464,524.38a1.1,1.1,0,0,0-1,1.83l19.2,20.5c15.12,16.16,30.76,32.86,48.91,46.06,20.09,14.61,41.2,23,61.06,24.14C615.79,618.32,635.62,611.28,648.3,597Zm9.71-86-27.33,25.37c-14.14,13.12-34,14.37-44.51,13.95a69.7,69.7,0,0,1-40-14.92,22.32,22.32,0,0,0,1.86,9.37c2.07,4.55,6,8.13,9.55,11,24.69,20.13,57.41,28.58,86.28,36l26.92,7a2.11,2.11,0,0,0,2.33-.89,2.07,2.07,0,0,0,0-2.42,27.25,27.25,0,0,0-13.89-10,1.91,1.91,0,0,1-1.32-2.22,1.93,1.93,0,0,1,2.08-1.54l27.71,2.75a2.1,2.1,0,0,0,2.13-1.1,1,1,0,0,0,0-.93c-.48-1-2.45-2.1-4.59-2.59l-31.06-7.06a1.93,1.93,0,0,1,.52-3.81l27.42,1.34c3.38.16,6.54-.59,7.89-1.87a2.27,2.27,0,0,0,.75-1.74c0-2.79-4.81-4-6.88-4.43l-25.06-4.85a1.93,1.93,0,0,1,.32-3.82l21.9-.58c3.26-.09,7.25-.74,7.76-3.37a3.46,3.46,0,0,0-1.26-3.2c-2.24-1.93-5.39-2-8.43-2l-38.56-.39A1.92,1.92,0,0,1,639.1,541l19.66-24.82c1.32-1.68,2.16-3.83,1.9-4.92a.78.78,0,0,0-.52-.59A2,2,0,0,0,658,511.07Z"/><path class="cls-2" d="M31.49,176.69a19,19,0,0,1-16-8.06c-3.52-5.06-3.27-10.87.7-15.92,5.4-6.88,16.14-10.6,23-8,4.47,1.72,6.81,5.8,6.43,11.2l-.24,3.44-10.05.1L35.21,152l1.8,0a2.93,2.93,0,0,0-.55-.26c-3.39-1.3-10.85,1.07-14.41,5.6-2.53,3.23-1.46,5.56-.44,7,3.94,5.66,10.37,5.18,13.85,4.39,7.38-1.68,16-8.23,17.41-17.05,2-12.69-4.41-26.56-19.74-42.4-1.57-1.63-3.17-3.25-4.78-4.87C17.3,93.28,5.88,81.74,1.87,66.18-.95,55.23,2.3,42.12,10,33.54c5.76-6.45,13.18-9.41,20.9-8.33C42.38,26.83,49.31,35.85,56,44.57c4,5.22,8.16,10.61,13.13,14.08l-4.27,6.14c-5.93-4.13-10.43-10-14.79-15.66-6-7.88-11.77-15.32-20.27-16.51-6.61-.91-11.41,2.7-14.27,5.9-6,6.69-8.61,17.3-6.42,25.79,3.5,13.61,14.2,24.41,24.54,34.85,1.63,1.65,3.26,3.29,4.85,4.94,17.08,17.65,24.19,33.61,21.74,48.79-2,12.19-13.12,20.87-23.13,23.15A25.22,25.22,0,0,1,31.49,176.69Z"/><path class="cls-2" d="M106.91,244.5l-34.56-6.67A844.59,844.59,0,0,1,75,25.59c51.39,16.87,106,17.12,157.53,15.88,10.55-.25,17-4.14,17.72-10.68.73-6.75-5.46-11.45-11.5-13.6-10.37-3.69-21.28-4.1-31.83-4.5C162.76,11,117.12,9.31,72.47,15.92l-2.2.32L70,18.44A849.91,849.91,0,0,0,66.66,240.7l.25,2.18,38.87,7.49ZM206.66,18.67c10.1.38,20.54.77,30.05,4.16,4,1.43,7.89,4.24,7.56,7.31-.53,4.83-10,5.3-11.91,5.35-50,1.19-102.78,1-152.36-14.57C122,15.49,165,17.1,206.66,18.67Z"/><polygon class="cls-2" points="221.05 178.94 215.18 177.78 244.65 29.07 250.52 30.24 221.05 178.94"/><path class="cls-2" d="M321.87,108.29l-.24.19c6.23,25.2-1.52,52.46-21.87,76.88A128.15,128.15,0,0,1,268,212.29a178.82,178.82,0,0,1-39.28,17.62c-26.89,8.52-55.21,11.85-82.6,15.08l-34.5,4.06a6.12,6.12,0,0,1-4.75-10.69,87.23,87.23,0,0,1,18.4-12.31l-28.45,1.11c-7.24.28-11.8-2-12.86-6.39A6.87,6.87,0,0,1,85,215.13c2.32-3.36,7.42-5.09,11.42-5.6l30.08-3.79-29.65-7.05c-4.51-1.07-10.13-2.4-13.35-7.55a8.94,8.94,0,0,1-.28-9.28c3.48-6,11.48-4.33,14.49-3.72l24.64,5c-7.54-4.06-14.42-8.73-20.06-14.68A7,7,0,0,1,109.47,157L151,170A76.42,76.42,0,0,1,143.24,157a10.25,10.25,0,0,1,16.65-11.47c2.6,2.7,5.1,5.64,7.52,8.49s5,5.82,7.49,8.44a11.29,11.29,0,0,0,7,5.62l-.52.16a27.42,27.42,0,0,0,10.68,5c6.06,1.28,12.49,0,18-1.41,38.15-9.8,70.57-36.16,99.18-59.43l9-7.29C319.47,106.28,320.68,107.36,321.87,108.29Zm-4.36,3.54-5.31,4.32c-29,23.57-61.83,50.29-101,60.35-6,1.55-13.15,2.93-20.16,1.45-6.33-1.34-11.55-4.69-16.23-8.91a2.5,2.5,0,0,1-.54-.49,129.87,129.87,0,0,1-10.51-11.42c-2.37-2.79-4.82-5.67-7.31-8.26a5.48,5.48,0,0,0-8.91,6.12,71.27,71.27,0,0,0,12.14,18,2.38,2.38,0,0,1-2.45,3.89l-49.19-15.31a2.13,2.13,0,0,0-2.54.95,2.09,2.09,0,0,0,.25,2.64c9.23,9.74,22.39,16,36.2,22a2.38,2.38,0,0,1-1.43,4.52l-43.76-8.87c-5.23-1.06-8.22-.6-9.43,1.46a4.25,4.25,0,0,0,.21,4.34c2,3.24,5.59,4.3,10.41,5.45l42.44,10.08a2.38,2.38,0,0,1-.26,4.68L97,214.26c-3.63.46-7,1.93-8.1,3.58a2.12,2.12,0,0,0-.35,1.82c.68,2.8,6.33,2.8,8,2.73l42.15-1.64a2.39,2.39,0,0,1,.8,4.66,81.62,81.62,0,0,0-18.42,8.35A83.21,83.21,0,0,0,110,242a1.36,1.36,0,0,0,1.06,2.36l34.5-4.06c27.17-3.2,55.26-6.5,81.72-14.88,29.28-9.28,53.07-24.17,68.83-43.06C314.85,159.81,322.39,134.91,317.51,111.83Z"/><ellipse class="cls-2" cx="301.13" cy="148.05" rx="3.06" ry="5.41" transform="translate(-2.08 4.32) rotate(-0.82)"/><ellipse class="cls-2" cx="310.61" cy="140.37" rx="3.06" ry="5.41" transform="translate(-1.97 4.45) rotate(-0.82)"/><path class="cls-2" d="M225.31,150.4h0v-5.91h0c19.84,0,42.4-13,57.48-33,7.79-10.35,12.53-22.27,17.54-34.89,2.93-7.39,6-15,9.66-22.26,8.22-16.09,19.37-25.3,31.38-25.93.48,0,1,0,1.45-.05,1.62,0,3.16-.08,4.12-.68a.58.58,0,0,0,.18-.17c-11.48,1-25.37,3.44-35.72,11.5-8.59,6.68-14.21,16.79-19.65,26.55l-1.05,1.88c-6.47,11.58-13.77,23.71-23.36,34A66.3,66.3,0,0,1,233,121.5l-1.39-5.76A60.6,60.6,0,0,0,263,97.39c9.15-9.8,16.23-21.56,22.52-32.82l1-1.86c5.72-10.29,11.65-20.92,21.19-28.35,12.25-9.54,28.38-11.91,41.06-12.91l.8-.06.72.34a5.38,5.38,0,0,1,3,4.66A7.19,7.19,0,0,1,350,32.74c-2.32,1.43-4.84,1.5-7.07,1.55-.43,0-.86,0-1.29.05-13.25.69-22.24,14.53-26.42,22.71-3.56,7-6.55,14.49-9.43,21.75-4.94,12.43-10,25.29-18.31,36.27C271.36,136.53,247,150.4,225.31,150.4Z"/></pattern></defs><title>коричневий візерунок</title><rect class="cls-3" width="569.24" height="570.65"/></svg>