<svg id="Шар_1" data-name="Шар 1" xmlns="http://www.w3.org/2000/svg" xmlns:xlink="http://www.w3.org/1999/xlink" viewBox="0 0 565.65 567.05"><defs><style>.cls-1{fill:none;}.cls-2{fill:#f7e4d3;}.cls-3{fill:url(#Новий_зразок_9);}</style><pattern id="Новий_зразок_9" data-name="Новий зразок 9" width="663.31" height="609.77" patternTransform="translate(-179.23 122.62) scale(0.31)" patternUnits="userSpaceOnUse" viewBox="0 0 663.31 609.77"><rect class="cls-1" width="663.31" height="609.77"/><path class="cls-2" d="M659.36,165.51a18.93,18.93,0,0,1-16-8.06c-3.53-5.06-3.27-10.87.69-15.92,5.4-6.88,16.14-10.6,23-8,4.46,1.72,6.81,5.8,6.43,11.2l-.25,3.44-10.05.1-.07-7.48,1.79,0a3.68,3.68,0,0,0-.54-.26c-3.4-1.3-10.85,1.07-14.41,5.6-2.53,3.23-1.47,5.56-.44,7,3.93,5.66,10.36,5.18,13.84,4.39,7.38-1.68,16-8.23,17.41-17,2-12.69-4.41-26.56-19.73-42.4-1.57-1.63-3.18-3.25-4.79-4.87-11-11.15-22.46-22.69-26.47-38.25-2.83-10.94.42-24.06,8.08-32.64C643.58,15.91,651,13,658.72,14c11.54,1.62,18.47,10.64,25.17,19.36C687.89,38.61,692,44,697,47.47l-4.28,6.14c-5.93-4.13-10.43-10-14.79-15.66-6.05-7.88-11.76-15.32-20.26-16.51-6.62-.91-11.42,2.7-14.28,5.9-6,6.69-8.61,17.3-6.42,25.79,3.51,13.61,14.2,24.41,24.55,34.85,1.63,1.65,3.25,3.29,4.85,4.94,17.07,17.65,24.18,33.61,21.74,48.79-2,12.19-13.13,20.87-23.13,23.15A25.38,25.38,0,0,1,659.36,165.51Z"/><path class="cls-2" d="M264.71,458.41c30.65-10.39,51.87-30,59.85-55.15l22.41-3a7.56,7.56,0,0,0,3-13.89,39.92,39.92,0,0,0-10.88-4.68l21.46-6.35a7.5,7.5,0,0,0,5.42-6.65,6,6,0,0,0-2-5c-2.6-2.35-7.19-2.59-10.62-2l-12.24,2,6.48-2.28c2-.71,8.85-3.44,11.13-8.51a7.68,7.68,0,0,0,.11-6.21c-1.93-4.71-7.46-6.43-15.55-4.82l-9.77,1.93,4.95-2.17c9.76-4.28,11-9.43,10.27-13a9.2,9.2,0,0,0-6.21-6.79c-5.2-1.76-10.14.19-14.11,1.75l-40.53,16,9.76-33.51c.92-3.17,1.26-7.9-.82-10.81a5.81,5.81,0,0,0-4.61-2.48,7.27,7.27,0,0,0-6.93,4.29l-19.83,42.55C258.54,354.55,243,367.26,223,374.51a82.63,82.63,0,0,1-53.88.45,137.14,137.14,0,0,1-2.69-14.07c-.59-3.76-1.2-7.65-2-11.37a10.44,10.44,0,0,0-20.56,1.11,77.91,77.91,0,0,0-.14,15.34l-29.19-33.28a7.1,7.1,0,0,0-12.29,6.11c1.73,8.17,5.24,15.88,9.62,23.42L93.06,344.79c-2.29-2.13-8.38-7.79-14.56-4.47a9.08,9.08,0,0,0-4.69,8.2c.06,6.19,4.23,10.33,7.58,13.66l22,21.87L75.26,371.37c-3.74-1.69-9.1-2.89-12.9-1.21a7,7,0,0,0-3.91,4.34c-1.42,4.38,1.34,8.78,7.78,12.38L91.52,401A88.94,88.94,0,0,0,69,402a6.23,6.23,0,0,0-1.55,11.8l32.12,14.81c25.5,11.75,51.88,23.9,79.76,30.79a181.75,181.75,0,0,0,43.48,5.56A130.6,130.6,0,0,0,264.71,458.41ZM104.3,408.08a2.43,2.43,0,0,0,1.78-4.47l-37.48-21c-1.53-.85-6.44-3.86-5.53-6.65a2.1,2.1,0,0,1,1.26-1.39c1.87-.83,5.54-.34,8.94,1.19L113.61,394a2.43,2.43,0,0,0,2.7-3.94l-31.5-31.3c-3.57-3.56-6.11-6.37-6.15-10.27a4.31,4.31,0,0,1,2.13-3.87c2.14-1.15,5,0,9,3.74l33.29,31a2.43,2.43,0,0,0,3.64-3.17c-8.79-12.57-16.91-25-19.75-38.33a2.11,2.11,0,0,1,1.18-2.42,2.15,2.15,0,0,1,2.71.52l34.59,39.44a2.43,2.43,0,0,0,4.2-2.08,72,72,0,0,1-1-22.09,5.58,5.58,0,0,1,11-.59c.79,3.57,1.39,7.38,2,11.07a134.42,134.42,0,0,0,3.06,15.5,2.78,2.78,0,0,0,.21.71c1.82,6.15,4.58,11.84,9.36,16.36,5.3,5,12.22,7.59,18.29,9.45,39.36,12.07,82.08,6.32,119.78,1.25l6.91-.93c-8,22.63-27.81,40.26-56.05,49.83-23.72,8-52.3,8.33-82.66.83-27.43-6.78-53.59-18.83-78.89-30.49l-32.12-14.8a1.34,1.34,0,0,1-.79-1.45,1.31,1.31,0,0,1,1.12-1.17,84,84,0,0,1,34.49,1.35Zm120.31-29c12.51-4.51,35-15.37,45.28-37.39l19.83-42.55a2.47,2.47,0,0,1,2.3-1.49,1,1,0,0,1,.89.45c.81,1.14.86,4.05.11,6.63L281.88,343a2.42,2.42,0,0,0,3.22,2.94l45.14-17.85c3.56-1.41,7.24-2.87,10.77-1.68a4.35,4.35,0,0,1,3,3.14c.66,3.3-3.69,5.95-7.45,7.6l-25.26,11.08a2.43,2.43,0,0,0,1.45,4.6l31.52-6.23c2.6-.52,8.79-1.36,10.12,1.9a2.83,2.83,0,0,1-.05,2.38c-1,2.13-4.3,4.51-8.31,5.92l-32.61,11.46a2.43,2.43,0,0,0,1.2,4.68l39.56-6.5c2.74-.45,5.57-.09,6.59.83a1.21,1.21,0,0,1,.39,1.11,2.64,2.64,0,0,1-1.95,2.3l-33.62,9.94a2.43,2.43,0,0,0,.9,4.75,34.28,34.28,0,0,1,21,5.12,2.59,2.59,0,0,1,1.18,2.81,2.66,2.66,0,0,1-2.29,2.14l-34.69,4.67c-37.2,5-79.37,10.68-117.71-1.08-5.53-1.69-11.8-4-16.37-8.34a27.83,27.83,0,0,1-6.62-10A87.63,87.63,0,0,0,224.61,379.07Z"/><ellipse class="cls-2" cx="285.72" cy="426.73" rx="3.11" ry="5.51" transform="translate(-183.72 218.5) rotate(-32.27)"/><ellipse class="cls-2" cx="298.04" cy="425.09" rx="3.11" ry="5.51" transform="matrix(0.85, -0.53, 0.53, 0.85, -180.94, 224.82)"/><path class="cls-2" d="M76.23,478.62a1.14,1.14,0,0,0,.69-.59l2-3.76,2.6,1.37,1-1.91-2.61-1.37L81.7,469a1.14,1.14,0,0,0,.11-.91,1.22,1.22,0,0,0-.62-.69,1.09,1.09,0,0,0-.86-.09,1.2,1.2,0,0,0-.66.62L74.89,477a1.21,1.21,0,0,0-.13.88,1,1,0,0,0,.56.67A1.14,1.14,0,0,0,76.23,478.62ZM84.17,482a1,1,0,0,0,.07-.76L82.54,475l5.76-2a.9.9,0,0,0,.57-.52,1.22,1.22,0,0,0,0-.82,1,1,0,0,0-.64-.6,1.27,1.27,0,0,0-.91-.07l-7.41,2.76,2.15,7.91a1.38,1.38,0,0,0,1.46.83A.93.93,0,0,0,84.17,482Z"/><path class="cls-2" d="M93.56,486.67a6,6,0,0,0,2.87-1.18,6.93,6.93,0,0,0,2.06-2.64l.81.38a6.42,6.42,0,0,0,.61-3.32,6.34,6.34,0,0,0-1.11-3,6.24,6.24,0,0,0-2.57-2.11,6.38,6.38,0,0,0-3.29-.59,6.26,6.26,0,0,0-3,1.13,6.44,6.44,0,0,0-2.13,2.62,6.69,6.69,0,0,0-.66,3.28,5.93,5.93,0,0,0,1,2.94,5.77,5.77,0,0,0,5.47,2.52Zm-3.46-3.56a4.14,4.14,0,0,1-.69-2,4.52,4.52,0,0,1,.43-2.22,4.46,4.46,0,0,1,1.42-1.79,4.05,4.05,0,0,1,2-.78A4.1,4.1,0,0,1,97,478a4,4,0,0,1,.67,2,4.49,4.49,0,0,1-.45,2.23,4.6,4.6,0,0,1-1.39,1.78,4,4,0,0,1-2,.79,3.83,3.83,0,0,1-2.13-.36A4,4,0,0,1,90.1,483.11Zm6.4,5.4a1.15,1.15,0,0,0,.66-.62l2.14-4.66-1.39-1.55-1.41,2L95,486.9a1.12,1.12,0,0,0,0,.91,1.22,1.22,0,0,0,1.52.7Z"/><path class="cls-2" d="M106.66,493a5.2,5.2,0,0,0,2.26.41,3.74,3.74,0,0,0,1.89-.6,3.2,3.2,0,0,0,1.2-1.5,3,3,0,0,0,.15-1.86,3.64,3.64,0,0,0-1-1.69,5.38,5.38,0,0,0-1.91-1.25l.17-.42-4.14-1.67,1.48-3.67a1.15,1.15,0,0,0,0-.91,1.18,1.18,0,0,0-.67-.62,1.1,1.1,0,0,0-.87,0,1.32,1.32,0,0,0-.65.63l-3.83,9.52a1.13,1.13,0,0,0,0,.9,1.15,1.15,0,0,0,.66.62Zm-2.07-6.79,4.14,1.67a2.22,2.22,0,0,1,1.2,1,1.52,1.52,0,0,1,.07,1.36,1.4,1.4,0,0,1-1,.87,2.4,2.4,0,0,1-1.56-.15l-4.14-1.66Zm4.74,1.17a3.7,3.7,0,0,0,2.63.13,2.75,2.75,0,0,0,1.75-1.66,3.12,3.12,0,0,0,.2-1.77,3.46,3.46,0,0,0-.79-1.59,4.29,4.29,0,0,0-1.63-1.11l-5.33-2.15-.81,2,5.34,2.15a1.55,1.55,0,0,1,.87.77,1.24,1.24,0,0,1,0,1.08,1.7,1.7,0,0,1-.77.92,1.16,1.16,0,0,1-1,.07l-2-.82-.46,1.15Z"/><path class="cls-2" d="M117.27,484.19a5.9,5.9,0,0,0,1.2-.88,10.63,10.63,0,0,0,1.12-1.21,4.52,4.52,0,0,0,.72-1.21,2.69,2.69,0,0,0,.16-1.53,1.25,1.25,0,0,0-.83-.95,1.39,1.39,0,0,0-1.06,0,1.31,1.31,0,0,0-.73.78,3.23,3.23,0,0,0-.21.9c0,.27-.06.56-.11.85a3.39,3.39,0,0,1-.37,1,6.67,6.67,0,0,1-1,1.26.77.77,0,0,0-.21.67.6.6,0,0,0,.41.51A1.15,1.15,0,0,0,117.27,484.19Z"/><path class="cls-2" d="M118.59,497.54a1.13,1.13,0,0,0,1.07-.14L125,494l-2.89-1-3.84,2.55a1.27,1.27,0,0,0-.5.58.88.88,0,0,0,.1.79A1.42,1.42,0,0,0,118.59,497.54Zm7.78,2.31a1.26,1.26,0,0,0,.59-.67l3.33-9.71a1.19,1.19,0,0,0,0-.91,1.21,1.21,0,0,0-.7-.58l-3.77-1.29a4.71,4.71,0,0,0-2.41-.23,4.21,4.21,0,0,0-2,.92,4.07,4.07,0,0,0-1.26,1.88,3.6,3.6,0,0,0-.14,2,3.51,3.51,0,0,0,1,1.74,4.52,4.52,0,0,0,1.88,1.16l-.09.28,3.06,1.06-1,2.87a1.17,1.17,0,0,0,0,.9,1.2,1.2,0,0,0,1.55.54Zm-4-8.16a2,2,0,0,1-.14-1.7,1.89,1.89,0,0,1,1.14-1.2,2.4,2.4,0,0,1,1.71,0l2.7.92-1.38,4-2.7-.93A2.39,2.39,0,0,1,122.37,491.69Z"/><path class="cls-2" d="M131.65,507.11a1.19,1.19,0,0,0,.53-.72l1.68-6a6,6,0,0,0,1.46,2,5.82,5.82,0,0,0,5.38,1.21,6,6,0,0,0,2.64-1.62,6.82,6.82,0,0,0,1.62-2.93,6.44,6.44,0,0,0,.07-3.37,6.17,6.17,0,0,0-1.57-2.81,6.31,6.31,0,0,0-9-.15,6.61,6.61,0,0,0-1.7,2.92l-2.83,10.1a1.14,1.14,0,0,0,.1.89,1.24,1.24,0,0,0,1.63.46Zm4.18-6.71a3.94,3.94,0,0,1-1-1.88,4.59,4.59,0,0,1,.08-2.26,4.73,4.73,0,0,1,1.11-2,4,4,0,0,1,1.82-1.09,3.87,3.87,0,0,1,2.16,0,4,4,0,0,1,1.86,1.1,4.12,4.12,0,0,1,1,1.88,4.58,4.58,0,0,1-.07,2.29,4.48,4.48,0,0,1-1.12,2,4,4,0,0,1-1.82,1.08,4.15,4.15,0,0,1-4-1.12Z"/><path class="cls-2" d="M149.28,506.17a1.13,1.13,0,0,0,.49-.75l2.14-10a1.14,1.14,0,0,0-.14-.9A1.11,1.11,0,0,0,151,494a1,1,0,0,0-.87.14,1.23,1.23,0,0,0-.48.77l-2.14,10a1.15,1.15,0,0,0,.13.88,1.08,1.08,0,0,0,.73.5A1.16,1.16,0,0,0,149.28,506.17Zm9-3.36.43-2-7.89-1.69-.44,2Zm.22,5.33a1.2,1.2,0,0,0,.47-.76l2.14-10a1.21,1.21,0,0,0-.11-.89,1.07,1.07,0,0,0-.75-.49,1.16,1.16,0,0,0-.88.14,1.1,1.1,0,0,0-.51.76l-2.14,10a1.14,1.14,0,0,0,.15.89,1.11,1.11,0,0,0,.75.5A1,1,0,0,0,158.5,508.14Z"/><path class="cls-2" d="M164.08,509.48a1.15,1.15,0,0,0,1-.33l4.63-4.24-3-.47-3.33,3.19a1.32,1.32,0,0,0-.39.66.89.89,0,0,0,.24.76A1.41,1.41,0,0,0,164.08,509.48Zm8.06.9a1.24,1.24,0,0,0,.46-.77l1.56-10.14a1.13,1.13,0,0,0-.19-.89,1.19,1.19,0,0,0-.79-.45l-3.93-.6a4.87,4.87,0,0,0-2.42.19A4.27,4.27,0,0,0,165,499a4.15,4.15,0,0,0-.91,2.07,3.66,3.66,0,0,0,.22,2,3.7,3.7,0,0,0,1.25,1.54,4.8,4.8,0,0,0,2.06.81l0,.29,3.2.5-.46,3a1.17,1.17,0,0,0,.19.88,1.09,1.09,0,0,0,.74.45A1.13,1.13,0,0,0,172.14,510.38Zm-5.37-7.33a1.93,1.93,0,0,1-.44-1.65,1.87,1.87,0,0,1,.91-1.38,2.35,2.35,0,0,1,1.68-.33l2.82.43-.65,4.21-2.82-.44A2.33,2.33,0,0,1,166.77,503.05Z"/><path class="cls-2" d="M186.24,512a1.18,1.18,0,0,0,.36-.82l.55-10.22a1.17,1.17,0,0,0-.27-.87,1.19,1.19,0,0,0-.84-.36,1.15,1.15,0,0,0-.85.27,1.13,1.13,0,0,0-.38.84l-.55,10.22a1.15,1.15,0,0,0,1.11,1.23A1.14,1.14,0,0,0,186.24,512Zm7.67.41a1.14,1.14,0,0,0,.36-.82l.36-6.57a6.07,6.07,0,0,0-.42-2.72,4,4,0,0,0-1.48-1.78,4.9,4.9,0,0,0-4.74-.18,4.44,4.44,0,0,0-1.75,1.69,5.65,5.65,0,0,0-.74,2.6l1.45.07a3,3,0,0,1,.9-2.07,2.62,2.62,0,0,1,2-.72,2.55,2.55,0,0,1,1.82.8,2.88,2.88,0,0,1,.59,2.19l-.35,6.57a1.15,1.15,0,0,0,1.11,1.23A1.1,1.1,0,0,0,193.91,512.4Zm7.65.41a1.18,1.18,0,0,0,.36-.82l.35-6.56a6,6,0,0,0-.41-2.73,3.91,3.91,0,0,0-1.49-1.78,4.6,4.6,0,0,0-2.28-.69,5.27,5.27,0,0,0-2.69.5,4.48,4.48,0,0,0-1.9,1.68,5.19,5.19,0,0,0-.78,2.59l1.9.11a3,3,0,0,1,.88-2.07,2.58,2.58,0,0,1,2-.73,2.56,2.56,0,0,1,1.83.8,2.92,2.92,0,0,1,.59,2.19l-.35,6.57a1.2,1.2,0,0,0,2,.94Z"/><path class="cls-2" d="M208.83,518.06a1.19,1.19,0,0,0,.29-.85l-.2-6.2a6,6,0,0,0,2,1.46,5.78,5.78,0,0,0,5.5-.45,6,6,0,0,0,2-2.34,6.82,6.82,0,0,0,.67-3.28,6.43,6.43,0,0,0-1-3.24,6.47,6.47,0,0,0-8.79-2,6.11,6.11,0,0,0-2.18,2.36,6.71,6.71,0,0,0-.75,3.3l.34,10.48a1.14,1.14,0,0,0,.36.83,1.15,1.15,0,0,0,.85.3A1.13,1.13,0,0,0,208.83,518.06Zm2-7.65a4.1,4.1,0,0,1-1.51-1.5,4.6,4.6,0,0,1-.6-2.18,4.67,4.67,0,0,1,.46-2.23,4,4,0,0,1,1.41-1.59,4.06,4.06,0,0,1,2.06-.63,3.91,3.91,0,0,1,2.11.5,4,4,0,0,1,1.51,1.49,4.78,4.78,0,0,1,.14,4.41,3.88,3.88,0,0,1-1.41,1.59,3.83,3.83,0,0,1-2.07.63A3.93,3.93,0,0,1,210.8,510.41Z"/><path class="cls-2" d="M231.62,511.13a6.23,6.23,0,0,0,1.82-1.22.79.79,0,0,0,.29-.75,1.07,1.07,0,0,0-.49-.7,1,1,0,0,0-.73-.17,1.29,1.29,0,0,0-.71.35,5.06,5.06,0,0,1-2.56,1.16,4.64,4.64,0,0,1-2.37-.32,4.31,4.31,0,0,1-1.75-1.38,4.43,4.43,0,0,1-.81-2.18,5,5,0,0,1,.23-2.31,3.8,3.8,0,0,1,1.23-1.72,4.24,4.24,0,0,1,2.17-.81,3.35,3.35,0,0,1,3.39,1.6,4.89,4.89,0,0,1,.68,2l.87-.74-9.14,1,.2,1.83,9.21-1a1.08,1.08,0,0,0,.72-.37,1,1,0,0,0,.22-.75,7.2,7.2,0,0,0-1-3.12,5.27,5.27,0,0,0-2.2-2,5.78,5.78,0,0,0-3.15-.45,6.3,6.3,0,0,0-3.11,1.16,5.9,5.9,0,0,0-1.94,2.48,6.8,6.8,0,0,0-.42,3.4,6.35,6.35,0,0,0,1.19,3.18,5.91,5.91,0,0,0,2.56,2,6.93,6.93,0,0,0,3.46.44A6.59,6.59,0,0,0,231.62,511.13Z"/><path class="cls-2" d="M240.6,509.88a1.2,1.2,0,0,0,.15-.88l-2-10a1.13,1.13,0,0,0-.48-.77,1.16,1.16,0,0,0-.9-.15,1.18,1.18,0,0,0-.76.48,1.12,1.12,0,0,0-.16.9l2,10a1.12,1.12,0,0,0,.49.76,1.14,1.14,0,0,0,.89.16A1.16,1.16,0,0,0,240.6,509.88Zm7.53-1.52a1.18,1.18,0,0,0,.14-.89L247,501a6.12,6.12,0,0,0-1.09-2.53,3.94,3.94,0,0,0-1.88-1.35,4.71,4.71,0,0,0-2.4-.1,4.53,4.53,0,0,0-2.23,1.11,4.47,4.47,0,0,0-1.27,2.08,5.56,5.56,0,0,0-.06,2.7l1.42-.29a3,3,0,0,1,.34-2.23,2.61,2.61,0,0,1,1.78-1.2,2.51,2.51,0,0,1,2,.31,2.94,2.94,0,0,1,1.13,2l1.3,6.45a1.14,1.14,0,0,0,.5.75,1.1,1.1,0,0,0,.89.16A1.15,1.15,0,0,0,248.13,508.36Zm7.5-1.53a1.12,1.12,0,0,0,.15-.88l-1.31-6.45a5.92,5.92,0,0,0-1.09-2.54,3.89,3.89,0,0,0-1.88-1.34,4.57,4.57,0,0,0-2.39-.1,5.3,5.3,0,0,0-2.47,1.16,4.51,4.51,0,0,0-1.42,2.1,5.35,5.35,0,0,0-.11,2.71l1.87-.38a2.94,2.94,0,0,1,.34-2.22,2.55,2.55,0,0,1,1.76-1.21,2.58,2.58,0,0,1,2,.32,2.91,2.91,0,0,1,1.12,2l1.31,6.44a1.13,1.13,0,0,0,1.38.92A1.14,1.14,0,0,0,255.63,506.83Z"/><path class="cls-2" d="M268.85,502.87a4.84,4.84,0,0,0,1.41-2.16,4.3,4.3,0,0,0,0-2.51,3.91,3.91,0,0,0-1.33-2,4.27,4.27,0,0,0-2.22-.9,6.48,6.48,0,0,0-2.72.27l-3.61,1.08-.74-2.47a1.09,1.09,0,0,0-.56-.71,1.16,1.16,0,0,0-1.56.46,1.26,1.26,0,0,0-.13.89l1.88,6.31a5.07,5.07,0,0,0,1.43,2.37,4.77,4.77,0,0,0,2.4,1.12,7.64,7.64,0,0,0,5.77-1.71Zm-5.09-.51a3,3,0,0,1-1.43-.68,2.65,2.65,0,0,1-.85-1.31l-.56-1.87,3.62-1.08a3.64,3.64,0,0,1,2.21,0,2,2,0,0,1,1.33,1.46,2.11,2.11,0,0,1-.41,2.1,4.47,4.47,0,0,1-2.17,1.31A3.59,3.59,0,0,1,263.76,502.36Z"/><path class="cls-2" d="M283.3,497.39a5.83,5.83,0,0,0,1.29-2.9,7.15,7.15,0,0,0-2.35-6.19,6,6,0,0,0-2.9-1.32,6.41,6.41,0,0,0-3.34.4,6.58,6.58,0,0,0-2.79,1.92,5.93,5.93,0,0,0-1.3,2.91,6.53,6.53,0,0,0,.42,3.39,6.4,6.4,0,0,0,1.93,2.8,6,6,0,0,0,2.89,1.32,6.55,6.55,0,0,0,3.37-.41A6.49,6.49,0,0,0,283.3,497.39Zm-5.69.22a4,4,0,0,1-1.89-.91,4.55,4.55,0,0,1-1.29-1.89,4.63,4.63,0,0,1-.3-2.29,3.88,3.88,0,0,1,.82-1.94,4,4,0,0,1,1.78-1.27,4,4,0,0,1,2.18-.23,3.82,3.82,0,0,1,1.88.92,4.84,4.84,0,0,1,1.28,1.91,4.71,4.71,0,0,1,.31,2.27,3.92,3.92,0,0,1-.81,1.93,4.3,4.3,0,0,1-4,1.5Z"/><path class="cls-2" d="M283.88,481.77a1.35,1.35,0,0,0,0-1.06,1.32,1.32,0,0,0-.77-.71,1.28,1.28,0,0,0-1,0,1.34,1.34,0,0,0-.74.77,1.36,1.36,0,0,0,0,1.05,1.4,1.4,0,0,0,1.84.7A1.36,1.36,0,0,0,283.88,481.77Zm8.1,12.37a1.13,1.13,0,0,0,0-.9l-4.12-9.37a1.2,1.2,0,0,0-.64-.65,1.16,1.16,0,0,0-.91,0,1.2,1.2,0,0,0-.64.63,1.14,1.14,0,0,0,0,.92l4.12,9.36a1.17,1.17,0,0,0,.65.64,1.13,1.13,0,0,0,.9,0A1.09,1.09,0,0,0,292,494.14Zm-3.43-14.42a1.39,1.39,0,0,0-1.84-1.77,1.28,1.28,0,0,0-.72.77,1.37,1.37,0,0,0,.78,1.78,1.31,1.31,0,0,0,1.06,0A1.36,1.36,0,0,0,288.55,479.72Z"/><path class="cls-2" d="M311.13,485.32a1,1,0,0,0,0-.74,1.22,1.22,0,0,0-.66-.59l-6.13-2.8-.78-.24L298,478.42a1.09,1.09,0,0,0-.95,0,1,1,0,0,0-.56.6,1,1,0,0,0,.11.75,1.32,1.32,0,0,0,.63.58l5.66,2.54,1.1.39,5.72,2.62a.9.9,0,0,0,.48.1,1.33,1.33,0,0,0,.43-.13A1,1,0,0,0,311.13,485.32ZM303.24,489l1.31-5.73-1.88-1-1.4,6.11a1.32,1.32,0,0,0,.06.89,1,1,0,0,0,.55.51.91.91,0,0,0,.77-.05A1.1,1.1,0,0,0,303.24,489Zm3.2-13a1.45,1.45,0,0,0-.07-.91,1.08,1.08,0,0,0-.54-.57.92.92,0,0,0-.82.05,1.19,1.19,0,0,0-.38.27.94.94,0,0,0-.21.45l-1.22,6,2,.53Z"/><path class="cls-2" d="M320.59,480.6a5.22,5.22,0,0,0,1.74-1.48,3.74,3.74,0,0,0,.74-1.85,3.25,3.25,0,0,0-.4-1.88,3,3,0,0,0-1.34-1.29,3.59,3.59,0,0,0-1.92-.33,5.39,5.39,0,0,0-2.18.7l-.22-.41-3.92,2.15-1.9-3.47a1.15,1.15,0,0,0-.69-.6,1.17,1.17,0,0,0-.9.13,1.11,1.11,0,0,0-.55.67,1.29,1.29,0,0,0,.08.9l4.92,9a1.14,1.14,0,0,0,.7.58,1.19,1.19,0,0,0,.9-.11ZM317.93,475a3.73,3.73,0,0,0,1.77-2,2.8,2.8,0,0,0-.17-2.41,3.12,3.12,0,0,0-1.25-1.27,3.37,3.37,0,0,0-1.73-.39,4.13,4.13,0,0,0-1.88.55l-5.05,2.76,1,1.9,5-2.77a1.61,1.61,0,0,1,1.16-.18,1.26,1.26,0,0,1,.86.65,1.77,1.77,0,0,1,.22,1.18,1.17,1.17,0,0,1-.61.85l-1.91,1.05L316,476ZM314,477.9l3.92-2.14a2.2,2.2,0,0,1,1.54-.3,1.54,1.54,0,0,1,1.1.82,1.37,1.37,0,0,1,.05,1.29,2.29,2.29,0,0,1-1.09,1.11l-3.91,2.15Z"/><path class="cls-2" d="M334,471.55a5.06,5.06,0,0,0,.55-2.58,4.75,4.75,0,0,0-.87-2.52l-1.19.81a2.63,2.63,0,0,1,.46,1.5,3.27,3.27,0,0,1-.43,1.56,3.75,3.75,0,0,1-1.23,1.32,4.18,4.18,0,0,1-1.77.71,3,3,0,0,1-1.78-.29,4.25,4.25,0,0,1-1.6-1.48L323,465.9a1.15,1.15,0,0,0-.75-.51,1.13,1.13,0,0,0-.88.2,1.1,1.1,0,0,0-.5.74,1.15,1.15,0,0,0,.19.89l3.18,4.67a6.56,6.56,0,0,0,2.41,2.26,4.88,4.88,0,0,0,2.76.53,5.89,5.89,0,0,0,2.73-1A5.66,5.66,0,0,0,334,471.55Zm2.75-1.61a1.13,1.13,0,0,0-.2-.88l-5.77-8.48a1.14,1.14,0,0,0-.75-.52,1.12,1.12,0,0,0-.88.21,1.2,1.2,0,0,0-.52.74,1.14,1.14,0,0,0,.21.89l5.77,8.48a1.13,1.13,0,0,0,1.63.31A1.12,1.12,0,0,0,336.79,469.94Z"/><path class="cls-2" d="M336.37,455.43l3.32,10.83a.9.9,0,0,0,.49.64,1.3,1.3,0,0,0,.83,0,1.22,1.22,0,0,0,.73-.51,1,1,0,0,0,.07-.83l-3.23-10.29-.88.78,9.78,4.43a1.13,1.13,0,0,0,.85,0,1.26,1.26,0,0,0,.57-.67,1.09,1.09,0,0,0,.05-.77,1,1,0,0,0-.58-.58L338,454a1.18,1.18,0,0,0-.71-.13,1.1,1.1,0,0,0-.59.27A1.17,1.17,0,0,0,336.37,455.43Z"/><path class="cls-2" d="M342.51,444.63a1.44,1.44,0,0,0-.5-1.05,1.47,1.47,0,0,0-1.1-.37,1.42,1.42,0,0,0-1,.5,1.51,1.51,0,0,0,1.22,2.52,1.51,1.51,0,0,0,1.05-.51A1.44,1.44,0,0,0,342.51,444.63Zm10.88,9.95a1.14,1.14,0,0,0-.41-.8l-7.66-6.8a1.14,1.14,0,0,0-.85-.32,1.15,1.15,0,0,0-.8.42,1.17,1.17,0,0,0-.32.84,1.1,1.1,0,0,0,.42.82l7.65,6.79a1.12,1.12,0,0,0,.85.31,1.14,1.14,0,0,0,.81-.41A1.09,1.09,0,0,0,353.39,454.58Z"/><path class="cls-2" d="M539.78,297.11c3.81-6.41,4.92-13.06,3.14-18.73-2-6.26-7.77-11.48-15.14-13.63-6.9-2-14.14-1.3-19.67-.46-1.88.29-3.78.63-5.6.95a95.85,95.85,0,0,1-12.63,1.68,47,47,0,0,1-22.66-4.85c-3.17-1.56-7.14-3.7-9.71-6.42-.8-.85-1.58-1.74-2.34-2.61a33.52,33.52,0,0,0-8-7.35,18.21,18.21,0,0,0-4.47-1.93l20.95-14.32a25.83,25.83,0,0,0,6.79-6,10.36,10.36,0,0,0,1.41-10.29c-2.57-5.5-9.73-6.27-15.31-4.65-5.22,1.52-9.84,4.3-14.31,7-.91.55-1.82,1.1-2.73,1.63-4.72,2.77-10.31,5.6-16,5.7-4.85.07-10.59-2.41-12.15-7.32-1.08-3.38.13-7.6,3-10.49a18.24,18.24,0,0,1,11.3-4.79l1.61-.12a22.41,22.41,0,0,0,5.38-.78c3.31-1,5.69-3.44,6.23-6.29.57-3.06-.95-6.26-4.27-9-9.16-7.59-23.5-8.27-33.35-1.59A28.33,28.33,0,0,0,389.48,202l-22-37.82c-.9-1.53-2.39-4.11-5.2-5a6.38,6.38,0,0,0-5.4.84,8.53,8.53,0,0,0-3.76,6c-.45,3.67,1.23,7.05,2.46,9.52l15.17,30.44-25.72-27.3a2.61,2.61,0,0,0-2.15-.8A2.56,2.56,0,0,0,341,179c-2.61,4.19-3.09,9.84-1.3,15.49,1.52,4.78,4.26,8.84,6.91,12.77l19.2,28.42-31.24-16.84c-4.18-2.26-7.81-2-9.71.62-1,1.43-1.75,3.93.57,7.76,6.47,10.65,17.44,17.69,27.22,23.46a429.63,429.63,0,0,0,56.24,27.67c7.16,2.91,14.5,5.34,21.59,7.69l6.34,2.11c6.46,2.18,12.17,6.49,17.7,10.65,1.84,1.39,3.75,2.82,5.67,4.17,13.53,9.49,27.78,14.47,41.22,14.39,14.24-.08,27.71-6.36,35.65-16.33A34.55,34.55,0,0,0,539.78,297.11ZM332.07,223.42l40.51,21.84a2.62,2.62,0,0,0,3.16-.54,2.58,2.58,0,0,0,.23-3.18l-25.09-37.13c-2.44-3.62-5-7.36-6.26-11.43a15.62,15.62,0,0,1-.56-7.87l35,37.11a2.61,2.61,0,0,0,3.37.35,2.57,2.57,0,0,0,.85-3.26l-23-46.11c-1.26-2.53-2.2-4.63-2-6.6a3.4,3.4,0,0,1,1.43-2.27,1.23,1.23,0,0,1,1-.23c.87.26,1.72,1.74,2.24,2.62l27.71,47.68a2.59,2.59,0,0,0,4.71-2.1A22.53,22.53,0,0,1,431.27,188c1.77,1.46,2.7,3,2.49,4.09s-1.49,1.94-2.67,2.31a18.27,18.27,0,0,1-4.16.56l-1.77.13a23.33,23.33,0,0,0-14.5,6.29c-4.28,4.29-6,10.45-4.28,15.7,2.33,7.31,10.4,11,17.17,10.91s13.26-3.3,18.56-6.41c.93-.54,1.86-1.1,2.79-1.66,4.37-2.63,8.5-5.11,13.08-6.44,3.53-1,7.94-.72,9.15,1.87a5.31,5.31,0,0,1-.94,5.12,21.41,21.41,0,0,1-5.49,4.71l-29.1,19.88a2.57,2.57,0,0,0-.69,3.57,2.61,2.61,0,0,0,3.57.73c2.9-1.88,7.11-1,10,.76h0c2.69,1.61,4.67,3.89,6.78,6.31.79.9,1.6,1.84,2.47,2.76,3.14,3.31,7.63,5.75,11.19,7.51a52.09,52.09,0,0,0,25.18,5.37,99.76,99.76,0,0,0,13.32-1.75c1.79-.32,3.65-.65,5.47-.92,5-.76,11.51-1.42,17.44.31,5.72,1.67,10.18,5.58,11.64,10.22,1.32,4.19.35,9.49-2.66,14.55-6.36,10.7-19.7,17.68-34,17.76-15.6.09-29.39-7.27-38.2-13.45-1.85-1.3-3.72-2.71-5.54-4.07-5.85-4.41-11.9-9-19.16-11.42l-6.36-2.12c-7-2.32-14.27-4.72-21.27-7.57a424.14,424.14,0,0,1-55.55-27.33c-9.24-5.45-19.58-12.07-25.43-21.69a4,4,0,0,1-.78-2.07A5.45,5.45,0,0,1,332.07,223.42Z"/><path class="cls-2" d="M579.88,221.29c-3-13-11.09-25.73-23.46-36.69-1.75-1.55-3.59-3.08-5.38-4.55-5.32-4.41-10.83-9-14.43-14.73q-1.77-2.83-3.51-5.67c-3.91-6.34-8-12.9-12.43-19.18A427.19,427.19,0,0,0,480.8,92.25c-7.87-8.17-17.26-17.2-29.14-21-4.28-1.38-6.56-.1-7.72,1.22-2.14,2.42-1.55,6,1.6,9.55l23.58,26.46L437,96.28c-4.44-1.68-9-3.41-14.06-3.79C417,92,411.55,93.78,408,97.27a2.57,2.57,0,0,0,.54,4.06l32.55,18.72-33.23-7.77c-2.69-.63-6.38-1.49-9.86-.22a8.55,8.55,0,0,0-5,5,6.29,6.29,0,0,0,.41,5.42c1.48,2.53,4.34,3.4,6.05,3.91l42,12.7a28.4,28.4,0,0,0-16.4,15.84c-4.29,11.07-.36,24.81,9.14,32,3.45,2.6,6.93,3.34,9.79,2.09a8.59,8.59,0,0,0,4.73-7.47,22,22,0,0,0-.45-5.39c-.09-.53-.18-1.06-.26-1.59a18.08,18.08,0,0,1,2.12-12c2.17-3.46,6-5.6,9.57-5.32,5.15.4,8.89,5.39,9.92,10.12,1.21,5.55-.29,11.61-1.92,16.81-.32,1-.65,2-1,3-1.61,4.94-3.27,10.05-3.57,15.46-.31,5.77,2.07,12.54,8,13.79a10.49,10.49,0,0,0,9.74-3.72,25.55,25.55,0,0,0,4.3-7.94l9.23-23.58a17.89,17.89,0,0,0,2.92,3.9h0c2.76,2.83,5.94,4.49,9,6.11,1,.53,2.07,1.08,3.08,1.66,3.24,1.87,6.24,5.24,8.49,8a46.45,46.45,0,0,1,9.9,20.86,93.51,93.51,0,0,1,1.23,12.63c.1,1.84.21,3.75.35,5.64.44,5.56,1.39,12.74,4.93,19,3.78,6.66,10.21,11.09,16.78,11.58,6,.43,12.2-2.16,17.6-7.32a34.4,34.4,0,0,0,3.25-3.56C580,249.6,583.05,235.11,579.88,221.29ZM493.25,170.1l-12.82,32.75a21.43,21.43,0,0,1-3.36,6.4,5.4,5.4,0,0,1-4.79,2.07c-2.81-.58-4.12-4.79-3.92-8.45.26-4.74,1.75-9.31,3.33-14.15.33-1,.67-2.05,1-3.08,1.83-5.84,3.5-12.72,2-19.45s-6.91-13.57-14.59-14.17c-5.51-.42-11.16,2.61-14.37,7.73a23.1,23.1,0,0,0-2.85,15.5c.08.58.18,1.16.28,1.74a18.09,18.09,0,0,1,.39,4.15c-.09,1.24-.64,2.68-1.65,3.12s-2.74-.1-4.57-1.48A22.45,22.45,0,0,1,453,142.51a2.58,2.58,0,0,0,1-5l-52.95-16c-1-.29-2.62-.79-3.07-1.57a1.24,1.24,0,0,1,0-1.07,3.42,3.42,0,0,1,1.89-1.9c1.88-.69,4.14-.25,6.9.4l50.33,11.77a2.58,2.58,0,0,0,1.89-4.75L414.69,98.88a15.82,15.82,0,0,1,7.81-1.24c4.28.32,8.52,1.92,12.62,3.47l42,15.86a2.58,2.58,0,0,0,2.86-4.12L449.42,78.54a5.33,5.33,0,0,1-1.57-2.72,4,4,0,0,1,2.2.3c10.75,3.47,19.57,12,27,19.71a420.73,420.73,0,0,1,39.39,47.63c4.37,6.14,8.37,12.63,12.24,18.89,1.17,1.9,2.34,3.8,3.53,5.69,4,6.48,9.88,11.31,15.52,16,1.75,1.45,3.55,2.94,5.24,4.44,8.06,7.14,18.39,18.83,21.86,34,3.16,13.84-.62,28.35-9.64,37-4.26,4.06-9.23,6.21-13.63,5.89-4.86-.36-9.71-3.8-12.64-9-3-5.35-3.88-11.8-4.28-16.83-.14-1.83-.24-3.7-.34-5.52A98,98,0,0,0,533,220.67a51.61,51.61,0,0,0-11-23.19c-2.52-3-5.93-6.85-9.89-9.13-1.1-.64-2.2-1.21-3.27-1.77a29.25,29.25,0,0,1-7.71-5.14h0c-2.35-2.4-4.2-6.28-3-9.52a2.59,2.59,0,0,0-4.47-2.48A2.27,2.27,0,0,0,493.25,170.1Zm6,13.14h0Z"/><ellipse class="cls-2" cx="561.24" cy="237.28" rx="3.62" ry="6.37" transform="translate(-8.45 21.07) rotate(-2.14)"/><ellipse class="cls-2" cx="549.85" cy="239.19" rx="6.37" ry="3.62" transform="translate(212.31 734.77) rotate(-79.25)"/><ellipse class="cls-2" cx="515.81" cy="284.16" rx="6.4" ry="3.6" transform="translate(-13.6 26.23) rotate(-2.87)"/><ellipse class="cls-2" cx="517.57" cy="295.53" rx="3.6" ry="6.4" transform="translate(138.28 755.27) rotate(-80.2)"/><path class="cls-2" d="M585,590c-.79-1.11-3-.87-5,.54s-2.92,3.44-2.12,4.56,3,.87,5-.54S585.78,591.13,585,590Z"/><ellipse class="cls-2" cx="590.97" cy="595.05" rx="2.47" ry="4.38" transform="translate(-236.83 729.47) rotate(-54.42)"/><path class="cls-2" d="M648.39,495.51a5.51,5.51,0,0,0-.71-6.16,4.25,4.25,0,0,0-3.87-1.07,10.67,10.67,0,0,0-7.25,5.48c-3.3,6.41-1.57,15.2,4,20.44,6.56,6.13,15.9,6.44,20.89,6.08a36.83,36.83,0,0,0,22.08-8.91c6.39-5.79,9.95-14.16,9.28-21.83-1-11.28-10.55-18.79-18.47-21.77-8.48-3.21-18.07-3.55-27.34-3.88l-3.9-.15-2.19-.1c-.2,3.65-1.87,7.32-3.75,10.83a231.17,231.17,0,0,1-12.57,21,5.33,5.33,0,0,1,1.7.48,4.59,4.59,0,0,1,2.65,3.2c.66,2.77-1,6.15-2.63,8.2l-17.22,21.74,34.63.34c3.38,0,7.6.08,10.9,2.93a7.31,7.31,0,0,1,2.53,6.86c-.55,2.83-3,6.26-11.44,6.48l-4.29.12,7.76,1.5c6.44,1.25,10,4.16,10,8.2a6.09,6.09,0,0,1-1.94,4.54c-3.2,3-9,3-10.74,2.93l-5.45-.26,9.61,2.18c2.69.61,6,2.16,7.21,4.67a4.78,4.78,0,0,1,0,4.28,6,6,0,0,1-6,3.27l-17.69-1.75a31.54,31.54,0,0,1,6.6,6.7,5.89,5.89,0,0,1,.1,6.86,6,6,0,0,1-6.48,2.45L617,586.93c-13.42,16.14-34.89,24.18-60.55,22.65a103.67,103.67,0,0,1-32.78-7.76,144.63,144.63,0,0,1-30.32-17.11c-18.45-13.42-34.21-30.26-49.46-46.54l-19.2-20.51a5,5,0,0,1,4.68-8.22,70.87,70.87,0,0,1,16.85,6.07l-14.38-18c-3.65-4.57-4.37-8.64-2-11.44a5.54,5.54,0,0,1,4.17-2c3.31-.1,6.88,2.39,9.13,4.75l16.91,17.75-9.65-22.68c-1.46-3.45-3.29-7.74-1.49-12.32a7.24,7.24,0,0,1,5.91-4.63c5.55-.59,8.33,5.4,9.38,7.65L472.79,493a63.41,63.41,0,0,1-.06-20.11,5.54,5.54,0,0,1,5.08-4.6,5.74,5.74,0,0,1,3,.61,91,91,0,0,1,11.39-55.44,7.79,7.79,0,0,1,0-3.19c1.26-6.52,8.79-8.12,15.68-6.82a380.58,380.58,0,0,1,124,47c3.21,1.91,6.73,4.26,8.26,8.16l3.16.15,3.87.14c9.67.35,19.67.71,28.91,4.2,12.16,4.6,20.67,14.8,21.65,26,.8,9.18-3.37,19.12-10.89,25.92a41.76,41.76,0,0,1-25,10.19c-10,.72-18.76-1.91-24.63-7.41-7.16-6.7-9.34-18-5.06-26.32a15.69,15.69,0,0,1,10.89-8.1,9.17,9.17,0,0,1,8.13,2.47,10.39,10.39,0,0,1,1.59,11.95,10.06,10.06,0,0,1-10.75,5.3l1.05-4.83A5.2,5.2,0,0,0,648.39,495.51ZM497.06,411.39l1,.66a4.87,4.87,0,0,1,.54-.6c1.24-1.15,3.15-1.08,4.83-.88,10.58,1.27,20.76,4.7,30.82,8.19Q571.65,431.69,608.5,446c5.21,2,10.45,4.1,15.12,7.19a8.86,8.86,0,0,1,3.13,3,4.16,4.16,0,0,1,.43,1.43c2.33.22,4.67.44,7,.61a21.12,21.12,0,0,0-4.79-3.54A375.63,375.63,0,0,0,507,408.34c-3.62-.68-9.24-.48-9.9,2.9A.77.77,0,0,0,497.06,411.39Zm-7.92,72.31A72.34,72.34,0,0,0,497,500a62.55,62.55,0,0,1,2.77-5.86,8.28,8.28,0,0,1,15.45,5.34c-.51,3-1.22,6-1.91,9-.64,2.7-1.26,5.36-1.73,8A66.78,66.78,0,0,0,538,529.77c21,5.21,44.57-.39,62.53-14.64l8.76-8.12c9.88-10.5,17.43-23.34,23.6-34.88,1.6-3,3-6,3.17-8.77a311.58,311.58,0,0,1-136.39-41.52,22.14,22.14,0,0,1-4.5-3.36C484.49,438.51,482.14,462.9,489.14,483.7ZM612.87,585.85l-5.36-1.38c-29.26-7.56-62.42-16.12-87.76-36.79-3.9-3.18-8.22-7.15-10.62-12.43-2.16-4.76-2.49-9.76-2-14.83a1.94,1.94,0,0,1,.06-.59,106.22,106.22,0,0,1,2.39-12.32c.68-2.88,1.38-5.86,1.87-8.73a4.43,4.43,0,0,0-8.26-2.86,57.4,57.4,0,0,0-5.89,16.54,1.93,1.93,0,0,1-3.72.28L480,473.36a1.73,1.73,0,0,0-1.85-1.19,1.68,1.68,0,0,0-1.59,1.43c-1.91,10.69.35,22.24,3.05,34.12A1.92,1.92,0,0,1,476,509l-15.23-32.74c-1.82-3.92-3.56-5.65-5.47-5.44a3.41,3.41,0,0,0-2.73,2.21c-1.14,2.88-.12,5.71,1.45,9.39l13.8,32.47a1.93,1.93,0,0,1-3.17,2.08l-24.23-25.45c-2-2.15-4.6-3.61-6.22-3.56a1.69,1.69,0,0,0-1.34.65c-1.51,1.78,1.21,5.46,2.07,6.55l21.3,26.65a1.92,1.92,0,0,1-2.65,2.75,65.84,65.84,0,0,0-14.28-8,66.55,66.55,0,0,0-10.69-3.34,1,1,0,0,0-1.17.53,1.05,1.05,0,0,0,.15,1.3l19.2,20.51c15.12,16.15,30.75,32.85,48.91,46.05,20.08,14.61,41.2,23,61.06,24.14C580.35,607.15,600.19,600.1,612.87,585.85Zm9.71-86-27.34,25.37c-14.13,13.12-34,14.37-44.5,14a69.7,69.7,0,0,1-40-14.92,22.17,22.17,0,0,0,1.86,9.37c2.07,4.55,6,8.13,9.55,11,24.69,20.13,57.41,28.58,86.28,36l26.91,7a2.11,2.11,0,0,0,2.33-.89,2,2,0,0,0,0-2.42,27.33,27.33,0,0,0-13.88-10,1.91,1.91,0,0,1-1.32-2.22,1.93,1.93,0,0,1,2.08-1.54l27.71,2.75a2.09,2.09,0,0,0,2.12-1.1.94.94,0,0,0,.05-.93c-.48-1-2.45-2.1-4.6-2.59l-31.05-7.06a1.93,1.93,0,0,1,.52-3.81l27.42,1.34c3.37.16,6.54-.59,7.89-1.87a2.27,2.27,0,0,0,.75-1.74c0-2.79-4.82-4-6.88-4.43l-25.06-4.85a1.93,1.93,0,0,1,.32-3.82l21.89-.58c3.27-.09,7.26-.74,7.77-3.37a3.47,3.47,0,0,0-1.27-3.2c-2.24-1.93-5.38-2-8.42-2l-38.56-.38a1.94,1.94,0,0,1-1.72-1.1,1.92,1.92,0,0,1,.23-2L623.33,505c1.32-1.68,2.16-3.83,1.9-4.92a.78.78,0,0,0-.52-.59A2,2,0,0,0,622.58,499.89Z"/><path class="cls-2" d="M-3.95,165.51a19,19,0,0,1-16-8.06c-3.52-5.06-3.27-10.87.7-15.92,5.4-6.88,16.13-10.6,23-8,4.46,1.72,6.81,5.8,6.43,11.2l-.24,3.44-10,.1-.08-7.48,1.79,0a3.68,3.68,0,0,0-.54-.26c-3.39-1.3-10.85,1.07-14.41,5.6-2.53,3.23-1.46,5.56-.44,7,3.94,5.66,10.37,5.18,13.85,4.39,7.37-1.68,16-8.23,17.4-17C19.48,127.83,13,114-2.3,98.12c-1.57-1.63-3.18-3.25-4.79-4.87C-18.13,82.1-29.55,70.56-33.56,55c-2.82-10.94.43-24.06,8.08-32.64C-19.72,15.91-12.31,13-4.58,14,7,15.65,13.88,24.67,20.58,33.39c4,5.22,8.15,10.61,13.13,14.08l-4.27,6.14C23.51,49.48,19,43.62,14.65,38,8.6,30.07,2.88,22.63-5.62,21.44c-6.62-.91-11.42,2.7-14.28,5.9-6,6.69-8.61,17.3-6.42,25.79C-22.81,66.74-12.11,77.54-1.77,88c1.63,1.65,3.26,3.29,4.85,4.94,17.08,17.65,24.19,33.61,21.74,48.79-2,12.19-13.12,20.87-23.13,23.15A25.31,25.31,0,0,1-3.95,165.51Z"/><path class="cls-2" d="M71.48,233.32l-34.56-6.67A844.12,844.12,0,0,1,39.54,14.41C90.93,31.28,145.48,31.53,197.07,30.29c10.55-.25,17-4.14,17.71-10.68.74-6.74-5.46-11.45-11.5-13.6-10.37-3.69-21.27-4.1-31.82-4.5C127.32-.15,81.69-1.86,37,4.74l-2.2.32-.32,2.2a850.35,850.35,0,0,0-3.3,222.26l.26,2.18,38.86,7.49ZM171.23,7.49c10.1.38,20.54.77,30.05,4.16,4,1.43,7.89,4.24,7.55,7.31-.52,4.83-10,5.3-11.9,5.35-50,1.19-102.78,1-152.36-14.57C86.56,4.31,129.57,5.92,171.23,7.49Z"/><polygon class="cls-2" points="185.62 167.77 179.75 166.6 209.22 17.89 215.09 19.06 185.62 167.77"/><path class="cls-2" d="M286.44,97.11l-.24.19c6.23,25.2-1.52,52.47-21.88,76.88a128,128,0,0,1-31.77,26.93,179,179,0,0,1-39.27,17.62c-26.89,8.52-55.21,11.85-82.61,15.08l-34.49,4.06a6.13,6.13,0,0,1-4.76-10.69,87.29,87.29,0,0,1,18.41-12.31L61.38,216c-7.24.28-11.81-2-12.86-6.39A6.83,6.83,0,0,1,49.58,204c2.32-3.36,7.42-5.09,11.42-5.6l30.07-3.79-29.64-7.05c-4.52-1.07-10.13-2.4-13.36-7.55a8.94,8.94,0,0,1-.27-9.28c3.48-6,11.48-4.33,14.49-3.72l24.64,5c-7.54-4.06-14.42-8.73-20.06-14.68A7,7,0,0,1,74,145.85l41.51,12.92a76,76,0,0,1-7.73-12.92,10.24,10.24,0,0,1,16.64-11.47c2.6,2.7,5.1,5.64,7.52,8.49s5,5.82,7.5,8.44a11.29,11.29,0,0,0,7,5.62l-.52.16a27.42,27.42,0,0,0,10.68,5c6.05,1.28,12.49,0,18-1.41,38.15-9.8,70.57-36.16,99.17-59.43l9-7.29C284,95.1,285.25,96.18,286.44,97.11Zm-4.36,3.54L276.77,105c-29,23.57-61.83,50.29-101,60.35-6,1.55-13.15,2.93-20.17,1.45-6.32-1.34-11.55-4.69-16.22-8.91a2.11,2.11,0,0,1-.54-.49A129.87,129.87,0,0,1,128.34,146c-2.37-2.79-4.82-5.67-7.32-8.26a5.48,5.48,0,0,0-8.9,6.12,71,71,0,0,0,12.14,18,2.38,2.38,0,0,1-2.46,3.89L72.62,150.4a2.16,2.16,0,0,0-2.55.95,2.1,2.1,0,0,0,.26,2.64c9.23,9.74,22.39,16,36.19,22a2.38,2.38,0,0,1-1.42,4.52l-43.76-8.87c-5.23-1.06-8.23-.6-9.43,1.46a4.25,4.25,0,0,0,.2,4.34c2,3.24,5.6,4.3,10.42,5.45L105,193a2.38,2.38,0,0,1-.25,4.68L61.6,203.08c-3.63.46-7,1.93-8.1,3.59a2.09,2.09,0,0,0-.35,1.81c.67,2.8,6.33,2.8,8,2.73l42.16-1.64a2.38,2.38,0,0,1,.79,4.66,81.62,81.62,0,0,0-18.42,8.35,83.11,83.11,0,0,0-11.16,8.19,1.36,1.36,0,0,0,1.06,2.36l34.5-4.06c27.17-3.19,55.26-6.5,81.72-14.88,29.27-9.28,53.07-24.17,68.82-43.06C279.42,148.63,287,123.73,282.08,100.65Z"/><ellipse class="cls-2" cx="265.7" cy="136.87" rx="3.06" ry="5.41" transform="translate(-1.93 3.81) rotate(-0.82)"/><ellipse class="cls-2" cx="275.17" cy="129.19" rx="3.06" ry="5.41" transform="translate(-1.82 3.94) rotate(-0.82)"/><path class="cls-2" d="M189.88,139.22h0v-5.91h0c19.84,0,42.4-13,57.48-33C255.15,90,259.88,78.06,264.9,65.44c2.93-7.39,6-15,9.66-22.26,8.22-16.09,19.36-25.3,31.38-25.93.48,0,1,0,1.45-.05a8.87,8.87,0,0,0,4.12-.68.94.94,0,0,0,.18-.17c-11.48,1-25.38,3.44-35.72,11.5-8.59,6.69-14.22,16.79-19.66,26.55l-1,1.88c-6.47,11.58-13.78,23.71-23.36,34a66.34,66.34,0,0,1-34.31,20.07l-1.39-5.76a60.54,60.54,0,0,0,31.37-18.35c9.16-9.8,16.24-21.56,22.52-32.82l1-1.86c5.73-10.29,11.65-20.92,21.19-28.35,12.25-9.54,28.38-11.91,41.07-12.91l.8-.06.72.34a5.39,5.39,0,0,1,3,4.66,7.23,7.23,0,0,1-3.29,6.35c-2.32,1.43-4.85,1.5-7.07,1.55-.44,0-.87,0-1.29.05C293,23.85,284,37.69,279.83,45.87c-3.57,7-6.55,14.49-9.43,21.75-4.94,12.43-10,25.29-18.31,36.27C235.93,125.35,211.51,139.22,189.88,139.22Z"/><path class="cls-2" d="M-14.92,495.51a5.51,5.51,0,0,0-.71-6.16,4.24,4.24,0,0,0-3.86-1.07,10.68,10.68,0,0,0-7.26,5.48c-3.3,6.41-1.56,15.2,4,20.44,6.56,6.13,15.91,6.44,20.9,6.08,8.57-.62,16.41-3.78,22.07-8.91,6.4-5.79,10-14.16,9.28-21.83-1-11.28-10.55-18.79-18.47-21.77-8.48-3.21-18.07-3.55-27.34-3.88l-3.9-.15-2.19-.1c-.2,3.65-1.87,7.32-3.74,10.83a231.17,231.17,0,0,1-12.57,21A5.48,5.48,0,0,1-37,496a4.64,4.64,0,0,1,2.65,3.2c.65,2.77-1,6.15-2.64,8.2l-17.21,21.74,34.62.34c3.39,0,7.6.08,10.91,2.93a7.33,7.33,0,0,1,2.52,6.86c-.54,2.83-3,6.26-11.44,6.48l-4.29.12,7.76,1.5c6.44,1.25,10,4.16,10,8.2A6.13,6.13,0,0,1-6,560.09c-3.19,3-9,3-10.73,2.93l-5.46-.26,9.61,2.18c2.69.61,6,2.16,7.21,4.67a4.78,4.78,0,0,1,0,4.28,6,6,0,0,1-6,3.27l-17.69-1.75a31.54,31.54,0,0,1,6.6,6.7A5.9,5.9,0,0,1-22.4,589a6,6,0,0,1-6.49,2.45l-17.39-4.49c-13.41,16.14-34.89,24.18-60.55,22.65a103.73,103.73,0,0,1-32.78-7.76,144.88,144.88,0,0,1-30.32-17.11c-18.45-13.42-34.21-30.26-49.46-46.54l-19.19-20.51a4.86,4.86,0,0,1-.69-5.84,4.85,4.85,0,0,1,5.36-2.38,70.71,70.71,0,0,1,16.85,6.07l-14.37-18c-3.66-4.57-4.38-8.64-2-11.44a5.56,5.56,0,0,1,4.18-2c3.3-.1,6.88,2.39,9.12,4.75l16.91,17.75-9.64-22.68c-1.47-3.45-3.3-7.74-1.49-12.32a7.23,7.23,0,0,1,5.9-4.63c5.55-.59,8.33,5.4,9.38,7.65l8.57,18.44a63.71,63.71,0,0,1-.06-20.11,5.54,5.54,0,0,1,5.09-4.6,5.72,5.72,0,0,1,3,.61,91,91,0,0,1,11.39-55.44,8.15,8.15,0,0,1,0-3.19c1.27-6.52,8.79-8.12,15.68-6.82a380.55,380.55,0,0,1,124,47c3.21,1.91,6.72,4.26,8.25,8.16l3.16.15,3.87.14c9.67.35,19.67.71,28.91,4.2,12.16,4.6,20.68,14.8,21.65,26,.8,9.18-3.37,19.12-10.89,25.92a41.76,41.76,0,0,1-25,10.19c-10,.72-18.75-1.91-24.63-7.41-7.16-6.7-9.34-18-5.06-26.32a15.71,15.71,0,0,1,10.9-8.1,9.15,9.15,0,0,1,8.12,2.47,10.39,10.39,0,0,1,1.59,11.95,10.06,10.06,0,0,1-10.75,5.3l1.05-4.83A5.19,5.19,0,0,0-14.92,495.51Zm-151.33-84.12,1,.66a5,5,0,0,1,.55-.6c1.24-1.15,3.15-1.08,4.83-.88,10.57,1.27,20.75,4.7,30.82,8.19Q-91.67,431.69-54.81,446c5.21,2,10.46,4.1,15.12,7.19a8.86,8.86,0,0,1,3.13,3,4.16,4.16,0,0,1,.43,1.43c2.33.22,4.67.44,7,.61a20.83,20.83,0,0,0-4.78-3.54,375.8,375.8,0,0,0-122.42-46.4c-3.62-.68-9.25-.48-9.9,2.9Zm-7.92,72.31a72.77,72.77,0,0,0,7.9,16.25,62.55,62.55,0,0,1,2.77-5.86,8.06,8.06,0,0,1,10-3.89,8.08,8.08,0,0,1,5.48,9.23c-.5,3-1.22,6-1.91,9-.64,2.7-1.26,5.36-1.73,8a66.78,66.78,0,0,0,26.33,13.42c21,5.21,44.58-.39,62.54-14.64l8.75-8.12c9.88-10.5,17.43-23.34,23.6-34.88,1.6-3,3-6,3.17-8.77a311.58,311.58,0,0,1-136.39-41.52,22.14,22.14,0,0,1-4.5-3.36C-178.82,438.51-181.17,462.9-174.17,483.7ZM-50.44,585.85l-5.36-1.38c-29.26-7.56-62.41-16.12-87.76-36.79-3.9-3.18-8.22-7.15-10.62-12.43-2.16-4.76-2.49-9.76-2-14.83a1.94,1.94,0,0,1,.06-.59,106.27,106.27,0,0,1,2.4-12.32c.67-2.88,1.38-5.86,1.86-8.73a4.27,4.27,0,0,0-2.94-4.93,4.26,4.26,0,0,0-5.32,2.07A57.4,57.4,0,0,0-166,512.46a1.93,1.93,0,0,1-1.75,1.57,1.94,1.94,0,0,1-2-1.29l-13.63-39.38a1.72,1.72,0,0,0-1.84-1.19,1.68,1.68,0,0,0-1.6,1.43c-1.91,10.69.36,22.24,3.06,34.12A1.93,1.93,0,0,1-185,510a1.93,1.93,0,0,1-2.37-1l-15.22-32.74c-1.83-3.92-3.56-5.65-5.48-5.44a3.41,3.41,0,0,0-2.73,2.21c-1.13,2.88-.11,5.71,1.45,9.39l13.81,32.47a1.93,1.93,0,0,1-.72,2.36,1.9,1.9,0,0,1-2.45-.28l-24.24-25.45c-2-2.15-4.59-3.61-6.22-3.56a1.69,1.69,0,0,0-1.34.65c-1.5,1.78,1.21,5.46,2.08,6.55l21.3,26.65a1.93,1.93,0,0,1-.12,2.54,1.92,1.92,0,0,1-2.53.21,66.31,66.31,0,0,0-14.28-8,67.19,67.19,0,0,0-10.69-3.34,1,1,0,0,0-1.18.53,1.05,1.05,0,0,0,.15,1.3l19.2,20.51c15.12,16.15,30.76,32.85,48.91,46.05,20.09,14.61,41.2,23,61.06,24.14C-82.95,607.15-63.12,600.1-50.44,585.85Zm9.71-86-27.33,25.37c-14.14,13.12-34,14.37-44.51,14a69.7,69.7,0,0,1-40-14.92,22.32,22.32,0,0,0,1.86,9.37c2.07,4.55,6,8.13,9.55,11,24.69,20.13,57.41,28.58,86.28,36l26.92,7a2.11,2.11,0,0,0,2.33-.89,2.07,2.07,0,0,0,0-2.42,27.31,27.31,0,0,0-13.89-10,1.91,1.91,0,0,1-1.32-2.22,1.93,1.93,0,0,1,2.08-1.54L-11,573.32a2.1,2.1,0,0,0,2.12-1.1,1,1,0,0,0,0-.93c-.48-1-2.45-2.1-4.59-2.59l-31.06-7.06A1.92,1.92,0,0,1-46,559.5a1.92,1.92,0,0,1,2-1.67l27.42,1.34c3.38.16,6.54-.59,7.89-1.87a2.27,2.27,0,0,0,.75-1.74c0-2.79-4.81-4-6.88-4.43l-25.06-4.85a1.92,1.92,0,0,1-1.55-2,1.93,1.93,0,0,1,1.87-1.77l21.9-.58c3.26-.09,7.25-.74,7.76-3.37a3.46,3.46,0,0,0-1.26-3.2c-2.24-1.93-5.39-2-8.43-2l-38.56-.38a2,2,0,0,1-1.72-1.1,1.92,1.92,0,0,1,.23-2L-40,505c1.32-1.68,2.16-3.83,1.9-4.92a.76.76,0,0,0-.52-.59A2,2,0,0,0-40.73,499.89Z"/></pattern></defs><title>білий візерунок</title><rect class="cls-3" width="565.65" height="567.05"/></svg>