<svg id="Шар_1" data-name="Шар 1" xmlns="http://www.w3.org/2000/svg" xmlns:xlink="http://www.w3.org/1999/xlink" viewBox="0 0 568.96 570.37"><defs><style>.cls-1{fill:none;}.cls-2{fill:#007045;}.cls-3{fill:url(#Новий_зразок_6);}</style><pattern id="Новий_зразок_6" data-name="Новий зразок 6" width="714.33" height="629.29" patternTransform="translate(-471.28 -168.81) scale(0.32)" patternUnits="userSpaceOnUse" viewBox="0 0 714.33 629.29"><rect class="cls-1" width="714.33" height="629.29"/><path class="cls-2" d="M735.9,175.28a19,19,0,0,1-16-8.06c-3.52-5.07-3.27-10.87.7-15.93,5.4-6.88,16.14-10.59,23-8,4.47,1.73,6.81,5.81,6.43,11.2l-.24,3.44-10,.1-.08-7.48,1.8,0a3.73,3.73,0,0,0-.55-.26c-3.39-1.3-10.85,1.07-14.41,5.6-2.53,3.23-1.46,5.56-.44,7,3.94,5.67,10.37,5.18,13.85,4.39,7.38-1.68,16-8.23,17.41-17.05,2-12.69-4.41-26.56-19.74-42.4q-2.35-2.43-4.79-4.87c-11-11.15-22.46-22.68-26.47-38.25-2.82-10.94.43-24.06,8.08-32.64,5.76-6.45,13.18-9.4,20.9-8.32,11.53,1.61,18.46,10.63,25.16,19.35,4,5.22,8.16,10.62,13.13,14.08l-4.27,6.14c-5.93-4.13-10.44-10-14.79-15.66-6-7.88-11.77-15.31-20.27-16.5-6.61-.92-11.42,2.69-14.27,5.89-6,6.69-8.62,17.3-6.42,25.79,3.5,13.61,14.2,24.41,24.54,34.85,1.63,1.65,3.26,3.29,4.85,4.94,17.08,17.65,24.19,33.61,21.74,48.79-2,12.19-13.12,20.87-23.13,23.15A25.32,25.32,0,0,1,735.9,175.28Z"/><path class="cls-2" d="M290.22,468.17c30.65-10.39,51.87-30,59.85-55.15l22.41-3a7.56,7.56,0,0,0,3-13.89,40.23,40.23,0,0,0-10.88-4.68l21.46-6.35a7.5,7.5,0,0,0,5.42-6.65,6,6,0,0,0-2-5c-2.6-2.35-7.19-2.58-10.62-2l-12.24,2,6.48-2.28c2-.71,8.85-3.44,11.13-8.51a7.68,7.68,0,0,0,.11-6.21c-1.93-4.71-7.45-6.42-15.55-4.82l-9.77,1.93,4.95-2.17c9.76-4.28,11-9.43,10.27-13a9.22,9.22,0,0,0-6.2-6.79c-5.21-1.76-10.15.19-14.11,1.76l-40.54,16,9.76-33.52c.92-3.17,1.26-7.9-.82-10.81a5.81,5.81,0,0,0-4.61-2.48,7.32,7.32,0,0,0-6.93,4.3L291,349.4c-6.95,14.91-22.45,27.62-42.53,34.87a82.63,82.63,0,0,1-53.88.46,140.64,140.64,0,0,1-2.69-14.08c-.59-3.76-1.2-7.65-2-11.37a10.43,10.43,0,0,0-20.55,1.12,77,77,0,0,0-.15,15.33L140,342.45a7.1,7.1,0,0,0-12.29,6.11c1.74,8.17,5.24,15.88,9.62,23.42l-18.75-17.43c-2.29-2.13-8.37-7.79-14.56-4.47a9.1,9.1,0,0,0-4.69,8.21c.06,6.18,4.23,10.32,7.58,13.65l22,21.87-28.14-12.68c-3.74-1.69-9.09-2.89-12.9-1.2A7,7,0,0,0,84,384.26c-1.42,4.38,1.34,8.78,7.78,12.38L117,410.79a89,89,0,0,0-22.53.92A6.24,6.24,0,0,0,93,423.52l32.12,14.8c25.5,11.75,51.88,23.91,79.76,30.79a181.75,181.75,0,0,0,43.48,5.56A130.56,130.56,0,0,0,290.22,468.17ZM129.81,417.84a2.43,2.43,0,0,0,1.78-4.47l-37.48-21c-1.53-.85-6.44-3.85-5.53-6.65a2.1,2.1,0,0,1,1.26-1.39c1.87-.82,5.54-.33,8.94,1.2l40.34,18.18a2.42,2.42,0,0,0,2.7-3.93l-31.5-31.31c-3.57-3.55-6.11-6.37-6.15-10.27a4.31,4.31,0,0,1,2.13-3.87c2.14-1.15,5,0,9,3.74l33.29,30.95a2.42,2.42,0,0,0,3.64-3.16c-8.79-12.57-16.91-25-19.75-38.34a2.12,2.12,0,0,1,1.18-2.42,2.17,2.17,0,0,1,2.71.52l34.59,39.44a2.43,2.43,0,0,0,4.2-2.08,72.63,72.63,0,0,1-1-22.09,5.58,5.58,0,0,1,11-.58c.79,3.57,1.39,7.38,2,11.06a132.31,132.31,0,0,0,3,15.5,2.78,2.78,0,0,0,.21.71c1.82,6.15,4.58,11.84,9.36,16.36,5.31,5,12.22,7.6,18.29,9.46,39.36,12.06,82.08,6.31,119.78,1.24l6.91-.93c-8,22.63-27.81,40.26-56,49.83-23.72,8-52.3,8.33-82.66.83-27.43-6.77-53.59-18.83-78.89-30.49L95,419.11a1.34,1.34,0,0,1-.79-1.45,1.31,1.31,0,0,1,1.12-1.17,84.67,84.67,0,0,1,14.05-1.18A83.35,83.35,0,0,1,129.81,417.84Zm120.31-29c12.51-4.51,35-15.37,45.28-37.38l19.83-42.55a2.49,2.49,0,0,1,2.3-1.5,1,1,0,0,1,.89.45c.81,1.14.86,4,.11,6.63l-11.14,38.28a2.42,2.42,0,0,0,3.22,2.93l45.14-17.85c3.56-1.41,7.25-2.87,10.77-1.67a4.37,4.37,0,0,1,3,3.13c.65,3.3-3.7,6-7.46,7.61L336.8,358a2.43,2.43,0,0,0,1.45,4.61l31.52-6.24c2.6-.51,8.79-1.36,10.12,1.9a2.83,2.83,0,0,1-.05,2.38c-1,2.14-4.3,4.52-8.31,5.92L338.93,378a2.42,2.42,0,0,0,1.19,4.68l39.57-6.5c2.73-.45,5.56-.09,6.58.84a1.19,1.19,0,0,1,.39,1.11,2.63,2.63,0,0,1-2,2.29l-33.62,9.95a2.42,2.42,0,0,0,.9,4.74,34.42,34.42,0,0,1,21,5.12,2.57,2.57,0,0,1,1.18,2.81,2.65,2.65,0,0,1-2.29,2.14l-34.69,4.67c-37.2,5-79.37,10.68-117.71-1.08-5.53-1.69-11.8-4-16.37-8.33a28,28,0,0,1-6.62-10A87.7,87.7,0,0,0,250.12,388.83Z"/><ellipse class="cls-2" cx="311.23" cy="436.49" rx="3.11" ry="5.51" transform="translate(-184.99 233.63) rotate(-32.27)"/><ellipse class="cls-2" cx="323.55" cy="434.85" rx="3.11" ry="5.51" transform="matrix(0.85, -0.53, 0.53, 0.85, -182.21, 239.95)"/><path class="cls-2" d="M101.75,488.38a1.11,1.11,0,0,0,.68-.58l2-3.77,2.6,1.38,1-1.92-2.61-1.37,1.8-3.4a1.11,1.11,0,0,0-.52-1.59,1,1,0,0,0-.86-.09,1.21,1.21,0,0,0-.66.61l-4.78,9.07a1.23,1.23,0,0,0-.13.89,1,1,0,0,0,.56.67A1.15,1.15,0,0,0,101.75,488.38Zm7.94,3.41a1,1,0,0,0,.06-.76l-1.7-6.25,5.77-2a.88.88,0,0,0,.56-.52,1.16,1.16,0,0,0,0-.82,1,1,0,0,0-.64-.6,1.21,1.21,0,0,0-.91-.06l-7.41,2.75,2.15,7.92a1.39,1.39,0,0,0,1.46.82A1,1,0,0,0,109.69,491.79Z"/><path class="cls-2" d="M119.07,496.44a6.1,6.1,0,0,0,2.87-1.19,6.93,6.93,0,0,0,2.06-2.64l.81.38a6.42,6.42,0,0,0,.61-3.32,6.35,6.35,0,0,0-1.1-3,6.38,6.38,0,0,0-8.89-1.58,6.5,6.5,0,0,0-2.13,2.62,6.8,6.8,0,0,0-.66,3.28,6.07,6.07,0,0,0,1,2.95,5.85,5.85,0,0,0,5.47,2.52Zm-3.46-3.57a4.17,4.17,0,0,1-.69-2,4.79,4.79,0,0,1,1.85-4,4.05,4.05,0,0,1,2-.78,4,4,0,0,1,2.13.36,3.9,3.9,0,0,1,1.66,1.38,4,4,0,0,1,.67,2,4.65,4.65,0,0,1-.44,2.24,4.58,4.58,0,0,1-1.4,1.77,3.94,3.94,0,0,1-2,.79,3.85,3.85,0,0,1-2.14-.36A4,4,0,0,1,115.61,492.87Zm6.4,5.4a1.15,1.15,0,0,0,.66-.62l2.14-4.66-1.38-1.55-1.42,2-1.47,3.2a1.13,1.13,0,0,0-.05.9,1.16,1.16,0,0,0,.62.65A1.14,1.14,0,0,0,122,498.27Z"/><path class="cls-2" d="M132.18,502.77a5,5,0,0,0,2.25.41,3.71,3.71,0,0,0,1.89-.6,3.2,3.2,0,0,0,1.2-1.5,3,3,0,0,0,.15-1.86,3.71,3.71,0,0,0-1-1.69,5.49,5.49,0,0,0-1.92-1.24l.17-.43-4.14-1.67,1.48-3.67a1.15,1.15,0,0,0,0-.91,1.13,1.13,0,0,0-.67-.61,1.1,1.1,0,0,0-.87,0,1.24,1.24,0,0,0-.65.63l-3.83,9.51a1.13,1.13,0,0,0,0,.9,1.2,1.2,0,0,0,.66.63ZM130.1,496l4.14,1.66a2.22,2.22,0,0,1,1.2,1,1.54,1.54,0,0,1,.07,1.37,1.41,1.41,0,0,1-1,.86,2.4,2.4,0,0,1-1.56-.14l-4.14-1.67Zm4.74,1.16a3.67,3.67,0,0,0,2.64.13,2.76,2.76,0,0,0,1.74-1.66,3.12,3.12,0,0,0,.2-1.77,3.43,3.43,0,0,0-.79-1.58,4.22,4.22,0,0,0-1.62-1.11L131.67,489l-.81,2,5.34,2.15a1.66,1.66,0,0,1,.88.78,1.27,1.27,0,0,1,0,1.08,1.71,1.71,0,0,1-.77.91,1.16,1.16,0,0,1-1,.07l-2-.82-.46,1.15Z"/><path class="cls-2" d="M142.78,494a5.54,5.54,0,0,0,1.2-.88,9.13,9.13,0,0,0,1.12-1.21,4.37,4.37,0,0,0,.72-1.2,2.73,2.73,0,0,0,.16-1.54,1.25,1.25,0,0,0-.83-.95,1.44,1.44,0,0,0-1.06,0,1.3,1.3,0,0,0-.73.79,3.09,3.09,0,0,0-.21.89c0,.28-.06.56-.11.85a3.19,3.19,0,0,1-.37,1,7,7,0,0,1-1,1.27.76.76,0,0,0-.21.67.64.64,0,0,0,.41.51A1.21,1.21,0,0,0,142.78,494Z"/><path class="cls-2" d="M144.1,507.31a1.13,1.13,0,0,0,1.07-.15l5.31-3.35-2.89-1-3.84,2.55a1.17,1.17,0,0,0-.49.59.85.85,0,0,0,.09.78A1.38,1.38,0,0,0,144.1,507.31Zm7.78,2.3a1.23,1.23,0,0,0,.59-.67l3.33-9.7a1.18,1.18,0,0,0,0-.91,1.11,1.11,0,0,0-.7-.58l-3.76-1.3a4.87,4.87,0,0,0-2.42-.23,4.25,4.25,0,0,0-2,.92,4.13,4.13,0,0,0-1.26,1.88,3.6,3.6,0,0,0-.14,2,3.67,3.67,0,0,0,1,1.74,4.65,4.65,0,0,0,1.88,1.16l-.09.28,3.06,1.06-1,2.87a1.17,1.17,0,0,0,0,.9,1.05,1.05,0,0,0,.65.57A1.08,1.08,0,0,0,151.88,509.61Zm-4-8.15a2,2,0,0,1-.15-1.71,1.89,1.89,0,0,1,1.14-1.2,2.43,2.43,0,0,1,1.72,0l2.69.93-1.38,4-2.7-.93A2.36,2.36,0,0,1,147.89,501.46Z"/><path class="cls-2" d="M157.16,516.87a1.15,1.15,0,0,0,.54-.72l1.67-6a5.87,5.87,0,0,0,1.46,2,5.86,5.86,0,0,0,5.38,1.22,6,6,0,0,0,2.64-1.63,6.84,6.84,0,0,0,1.62-2.92,6.48,6.48,0,0,0,.07-3.38,6.17,6.17,0,0,0-4.46-4.49,6.09,6.09,0,0,0-3.33-.06A6.21,6.21,0,0,0,160,502.5a6.67,6.67,0,0,0-1.7,2.92l-2.82,10.1a1.17,1.17,0,0,0,.09.9,1.14,1.14,0,0,0,.72.54A1.1,1.1,0,0,0,157.16,516.87Zm4.18-6.71a4.07,4.07,0,0,1-1-1.88,4.86,4.86,0,0,1,1.19-4.25,4.06,4.06,0,0,1,1.82-1.09,4,4,0,0,1,2.16,0,3.91,3.91,0,0,1,1.86,1.11,4,4,0,0,1,1,1.88,4.72,4.72,0,0,1-1.19,4.25,4.12,4.12,0,0,1-1.82,1.09,4.12,4.12,0,0,1-4-1.13Z"/><path class="cls-2" d="M174.79,515.93a1.13,1.13,0,0,0,.49-.75l2.14-10a1.11,1.11,0,0,0-.14-.9,1.14,1.14,0,0,0-.76-.49,1.12,1.12,0,0,0-.87.14,1.23,1.23,0,0,0-.48.77l-2.14,10a1.2,1.2,0,0,0,.13.88,1.08,1.08,0,0,0,.73.5A1.15,1.15,0,0,0,174.79,515.93Zm9-3.35.43-2-7.89-1.69-.44,2Zm.22,5.32a1.17,1.17,0,0,0,.47-.76l2.14-10a1.23,1.23,0,0,0-.11-.9,1.11,1.11,0,0,0-.75-.49,1.13,1.13,0,0,0-1.39.91l-2.14,10a1.14,1.14,0,0,0,.9,1.4A1.05,1.05,0,0,0,184,517.9Z"/><path class="cls-2" d="M189.59,519.24a1.1,1.1,0,0,0,1-.33l4.63-4.24-3-.46-3.33,3.18a1.24,1.24,0,0,0-.38.66.85.85,0,0,0,.23.76A1.35,1.35,0,0,0,189.59,519.24Zm8.06.9a1.24,1.24,0,0,0,.46-.77l1.56-10.14a1.13,1.13,0,0,0-.18-.89,1.16,1.16,0,0,0-.8-.44l-3.93-.61a4.7,4.7,0,0,0-2.41.2,4.22,4.22,0,0,0-1.83,1.26,4.15,4.15,0,0,0-.91,2.07,3.56,3.56,0,0,0,1.47,3.58,4.8,4.8,0,0,0,2.06.81l0,.29,3.2.5-.46,3a1.16,1.16,0,0,0,.19.88,1.09,1.09,0,0,0,.74.45A1.12,1.12,0,0,0,197.65,520.14Zm-5.37-7.32a2,2,0,0,1-.44-1.65,1.87,1.87,0,0,1,.91-1.39,2.4,2.4,0,0,1,1.68-.33l2.82.43-.65,4.21-2.82-.44A2.36,2.36,0,0,1,192.28,512.82Z"/><path class="cls-2" d="M211.75,521.76a1.18,1.18,0,0,0,.36-.83l.55-10.22a1.13,1.13,0,0,0-.27-.86,1.15,1.15,0,0,0-.83-.37,1.13,1.13,0,0,0-.86.28,1.14,1.14,0,0,0-.38.83l-.55,10.22a1.15,1.15,0,0,0,1.11,1.23A1.14,1.14,0,0,0,211.75,521.76Zm7.67.41a1.17,1.17,0,0,0,.37-.82l.35-6.57a6,6,0,0,0-.42-2.73,3.91,3.91,0,0,0-1.48-1.77,4.93,4.93,0,0,0-4.74-.19,4.51,4.51,0,0,0-1.75,1.69,5.53,5.53,0,0,0-.73,2.6l1.44.08a3,3,0,0,1,.9-2.07,2.55,2.55,0,0,1,2-.72,2.51,2.51,0,0,1,1.82.8,2.89,2.89,0,0,1,.6,2.18l-.36,6.57a1.15,1.15,0,0,0,.29.86,1.11,1.11,0,0,0,.82.37A1.14,1.14,0,0,0,219.42,522.17Zm7.65.41a1.16,1.16,0,0,0,.36-.82l.36-6.57a6.09,6.09,0,0,0-.42-2.73,4,4,0,0,0-1.48-1.77,4.58,4.58,0,0,0-2.29-.7,5.29,5.29,0,0,0-2.69.5,4.62,4.62,0,0,0-1.9,1.68,5.23,5.23,0,0,0-.78,2.6l1.9.1a3,3,0,0,1,.89-2.07,2.79,2.79,0,0,1,3.83.08,2.85,2.85,0,0,1,.59,2.18l-.35,6.57a1.15,1.15,0,0,0,1.11,1.24A1.18,1.18,0,0,0,227.07,522.58Z"/><path class="cls-2" d="M234.34,527.83a1.16,1.16,0,0,0,.29-.85l-.2-6.21a6,6,0,0,0,2,1.47,5.8,5.8,0,0,0,5.49-.46,5.92,5.92,0,0,0,2-2.34,6.69,6.69,0,0,0,.67-3.28,6.24,6.24,0,0,0-6.55-6.19,6.22,6.22,0,0,0-3.19.95,6,6,0,0,0-2.18,2.36,6.68,6.68,0,0,0-.75,3.29l.34,10.48a1.14,1.14,0,0,0,.36.83,1.16,1.16,0,0,0,.85.31A1.21,1.21,0,0,0,234.34,527.83Zm2-7.66a4.1,4.1,0,0,1-1.51-1.5,4.6,4.6,0,0,1-.6-2.17,4.69,4.69,0,0,1,.46-2.24,4,4,0,0,1,1.41-1.59,4.06,4.06,0,0,1,2.07-.63,4,4,0,0,1,2.11.5,4.12,4.12,0,0,1,1.5,1.49,4.48,4.48,0,0,1,.62,2.2,4.66,4.66,0,0,1-.47,2.22,4.07,4.07,0,0,1-1.41,1.58,3.89,3.89,0,0,1-2.08.63A4,4,0,0,1,236.31,520.17Z"/><path class="cls-2" d="M257.13,520.89a6.62,6.62,0,0,0,1.83-1.21.82.82,0,0,0,.28-.75,1.06,1.06,0,0,0-.49-.71,1,1,0,0,0-.73-.17,1.36,1.36,0,0,0-.71.35,4.7,4.7,0,0,1-1.13.74,4.32,4.32,0,0,1-1.43.42,4.67,4.67,0,0,1-2.37-.32,4.31,4.31,0,0,1-1.75-1.38,4.39,4.39,0,0,1-.81-2.18,5,5,0,0,1,.23-2.3,3.75,3.75,0,0,1,1.23-1.72,4.24,4.24,0,0,1,2.17-.82,3.33,3.33,0,0,1,3.39,1.61,4.71,4.71,0,0,1,.68,2l.87-.74-9.14,1,.2,1.83,9.21-1a1,1,0,0,0,.72-.37,1,1,0,0,0,.22-.75,7.29,7.29,0,0,0-1-3.12,5.12,5.12,0,0,0-2.2-1.95,5.69,5.69,0,0,0-3.15-.46,6.31,6.31,0,0,0-3.11,1.17,5.76,5.76,0,0,0-1.93,2.48,6.64,6.64,0,0,0-.43,3.39A6.39,6.39,0,0,0,249,519.1a6,6,0,0,0,2.56,2,6.94,6.94,0,0,0,5.62-.19Z"/><path class="cls-2" d="M266.11,519.65a1.23,1.23,0,0,0,.15-.89l-2-10a1.19,1.19,0,0,0-2.14-.43,1.1,1.1,0,0,0-.16.9l2,10a1.14,1.14,0,0,0,1.38.91A1.13,1.13,0,0,0,266.11,519.65Zm7.53-1.53a1.23,1.23,0,0,0,.15-.89l-1.31-6.45a6,6,0,0,0-1.09-2.53,4,4,0,0,0-1.88-1.34,4.57,4.57,0,0,0-2.39-.11,4.49,4.49,0,0,0-3.51,3.19,5.56,5.56,0,0,0-.06,2.7l1.42-.29a3,3,0,0,1,.34-2.23,2.61,2.61,0,0,1,1.78-1.2,2.52,2.52,0,0,1,2,.32,2.88,2.88,0,0,1,1.13,2l1.31,6.45a1.14,1.14,0,0,0,1.38.91A1.15,1.15,0,0,0,273.64,518.12Zm7.5-1.52a1.15,1.15,0,0,0,.15-.89L280,509.26a5.82,5.82,0,0,0-1.09-2.53,3.84,3.84,0,0,0-1.88-1.35,4.67,4.67,0,0,0-2.39-.1,5.45,5.45,0,0,0-2.47,1.16,4.53,4.53,0,0,0-1.42,2.11,5.35,5.35,0,0,0-.11,2.71l1.88-.38a3,3,0,0,1,.33-2.23,2.8,2.8,0,0,1,3.73-.89,2.9,2.9,0,0,1,1.12,2l1.31,6.45a1.11,1.11,0,0,0,.5.75,1.23,1.23,0,0,0,1.65-.33Z"/><path class="cls-2" d="M294.36,512.63a4.84,4.84,0,0,0,1.41-2.16,4.22,4.22,0,0,0,0-2.51,3.91,3.91,0,0,0-1.33-2,4.4,4.4,0,0,0-2.22-.9,6.82,6.82,0,0,0-2.72.27l-3.61,1.08-.74-2.47a1.14,1.14,0,0,0-1.46-.79,1.09,1.09,0,0,0-.66.55,1.29,1.29,0,0,0-.13.89l1.88,6.3a5,5,0,0,0,1.43,2.37,4.69,4.69,0,0,0,2.4,1.12,7.61,7.61,0,0,0,5.77-1.71Zm-5.09-.51a3.11,3.11,0,0,1-1.43-.67,2.7,2.7,0,0,1-.85-1.31l-.56-1.88,3.62-1.07a3.68,3.68,0,0,1,2.22-.05,2,2,0,0,1,1.32,1.46,2.1,2.1,0,0,1-.4,2.1A4.47,4.47,0,0,1,291,512,3.59,3.59,0,0,1,289.27,512.12Z"/><path class="cls-2" d="M308.82,507.15a5.87,5.87,0,0,0,1.28-2.9,7.15,7.15,0,0,0-2.35-6.19,6,6,0,0,0-2.9-1.31,6.31,6.31,0,0,0-3.34.39,6.51,6.51,0,0,0-2.79,1.93,6,6,0,0,0-1.3,2.9,6.58,6.58,0,0,0,.42,3.4,6.51,6.51,0,0,0,1.93,2.79,5.84,5.84,0,0,0,2.89,1.32,6.53,6.53,0,0,0,3.37-.4A6.6,6.6,0,0,0,308.82,507.15Zm-5.7.22a4,4,0,0,1-1.89-.9,4.58,4.58,0,0,1-1.29-1.9,4.73,4.73,0,0,1-.29-2.29,3.86,3.86,0,0,1,.81-1.94,4.12,4.12,0,0,1,1.78-1.27,4,4,0,0,1,2.18-.23,3.91,3.91,0,0,1,1.88.92,5.13,5.13,0,0,1,1.59,4.19,3.88,3.88,0,0,1-2.59,3.19A4,4,0,0,1,303.12,507.37Z"/><path class="cls-2" d="M309.39,491.54a1.36,1.36,0,0,0-.79-1.78,1.32,1.32,0,0,0-1.05,0,1.42,1.42,0,0,0-.73,1.83,1.32,1.32,0,0,0,.78.72,1.31,1.31,0,0,0,1.06,0A1.34,1.34,0,0,0,309.39,491.54Zm8.11,12.36a1.18,1.18,0,0,0-.05-.9l-4.12-9.37a1.18,1.18,0,0,0-.64-.64,1.16,1.16,0,0,0-.91,0,1.18,1.18,0,0,0-.64.64,1.12,1.12,0,0,0,0,.91L315.3,504a1.12,1.12,0,0,0,.65.63,1.17,1.17,0,0,0,.9,0A1.15,1.15,0,0,0,317.5,503.9Zm-3.44-14.42a1.3,1.3,0,0,0,0-1.06,1.29,1.29,0,0,0-.76-.72,1.32,1.32,0,0,0-1,0,1.29,1.29,0,0,0-.73.77,1.37,1.37,0,0,0,.78,1.78,1.36,1.36,0,0,0,1.78-.78Z"/><path class="cls-2" d="M336.64,495.08a1,1,0,0,0,0-.74,1.25,1.25,0,0,0-.66-.59l-6.13-2.8-.78-.24-5.57-2.53a1.08,1.08,0,0,0-1,0,.92.92,0,0,0-.56.59,1,1,0,0,0,.11.76,1.35,1.35,0,0,0,.63.57l5.66,2.55,1.1.39,5.72,2.61a.82.82,0,0,0,.48.1,1.62,1.62,0,0,0,.43-.12A1.07,1.07,0,0,0,336.64,495.08Zm-7.89,3.68,1.31-5.73-1.87-1-1.41,6.11a1.39,1.39,0,0,0,.06.89,1,1,0,0,0,.55.52.92.92,0,0,0,.77-.06A1.1,1.1,0,0,0,328.75,498.76Zm3.2-13a1.46,1.46,0,0,0-.07-.91,1.11,1.11,0,0,0-.54-.57.92.92,0,0,0-.82.05,1.31,1.31,0,0,0-.38.27.94.94,0,0,0-.21.45l-1.22,6,2,.54Z"/><path class="cls-2" d="M346.1,490.36a5.24,5.24,0,0,0,1.75-1.48,3.82,3.82,0,0,0,.73-1.84,3.22,3.22,0,0,0-.4-1.88,3,3,0,0,0-1.34-1.3,3.79,3.79,0,0,0-1.92-.33,5.44,5.44,0,0,0-2.18.7l-.22-.4L338.61,486l-1.9-3.47a1.17,1.17,0,0,0-2.15.2,1.29,1.29,0,0,0,.08.9l4.92,9a1.17,1.17,0,0,0,.7.58,1.15,1.15,0,0,0,.9-.11Zm-2.66-5.62a3.69,3.69,0,0,0,1.77-2,2.78,2.78,0,0,0-.17-2.4,3.15,3.15,0,0,0-1.25-1.28,3.35,3.35,0,0,0-1.72-.39,4.13,4.13,0,0,0-1.89.55L335.13,482l1,1.9,5.05-2.76a1.54,1.54,0,0,1,1.15-.19,1.28,1.28,0,0,1,.86.66,1.67,1.67,0,0,1,.22,1.17,1.17,1.17,0,0,1-.61.85l-1.91,1.05.59,1.09Zm-3.91,2.92,3.92-2.14a2.2,2.2,0,0,1,1.54-.29,1.5,1.5,0,0,1,1.1.81,1.4,1.4,0,0,1,.06,1.29,2.36,2.36,0,0,1-1.1,1.11l-3.91,2.15Z"/><path class="cls-2" d="M359.55,481.31a5.06,5.06,0,0,0,.55-2.58,4.78,4.78,0,0,0-.87-2.52L358,477a2.57,2.57,0,0,1,.46,1.49,3.34,3.34,0,0,1-.43,1.57,3.72,3.72,0,0,1-1.23,1.31,4.06,4.06,0,0,1-1.77.71,3,3,0,0,1-1.78-.28,4.37,4.37,0,0,1-1.6-1.49l-3.18-4.68a1.13,1.13,0,0,0-1.63-.31,1.16,1.16,0,0,0-.31,1.63l3.19,4.68a6.46,6.46,0,0,0,2.41,2.25,4.84,4.84,0,0,0,2.75.53,5.89,5.89,0,0,0,2.73-1A5.66,5.66,0,0,0,359.55,481.31Zm2.75-1.61a1.14,1.14,0,0,0-.2-.88l-5.77-8.48a1.17,1.17,0,0,0-.75-.52,1.12,1.12,0,0,0-.88.21,1.15,1.15,0,0,0-.51.74,1.09,1.09,0,0,0,.2.89l5.77,8.48a1.15,1.15,0,0,0,.75.51,1.13,1.13,0,0,0,.88-.2A1.1,1.1,0,0,0,362.3,479.7Z"/><path class="cls-2" d="M361.88,465.19,365.2,476a.89.89,0,0,0,.5.64,1.27,1.27,0,0,0,.82,0,1.22,1.22,0,0,0,.73-.51,1,1,0,0,0,.07-.83L364.09,465l-.88.78,9.78,4.43a1.13,1.13,0,0,0,.85,0,1.26,1.26,0,0,0,.57-.67,1.09,1.09,0,0,0,0-.77,1,1,0,0,0-.58-.58l-10.39-4.49a1.26,1.26,0,0,0-.71-.13,1.08,1.08,0,0,0-.59.28A1.15,1.15,0,0,0,361.88,465.19Z"/><path class="cls-2" d="M368,454.39a1.49,1.49,0,0,0-1.6-1.42,1.42,1.42,0,0,0-1,.5,1.51,1.51,0,0,0,.13,2.14,1.44,1.44,0,0,0,1.09.38,1.5,1.5,0,0,0,1-.5A1.47,1.47,0,0,0,368,454.39Zm10.88,9.95a1.16,1.16,0,0,0-.41-.8l-7.66-6.79a1.15,1.15,0,0,0-.85-.33,1.18,1.18,0,0,0-.7,2.08l7.65,6.8a1.16,1.16,0,0,0,.85.3,1.11,1.11,0,0,0,.81-.4A1.13,1.13,0,0,0,378.9,464.34Z"/><path class="cls-2" d="M565.29,306.87c3.81-6.4,4.92-13.05,3.14-18.72-2-6.26-7.77-11.49-15.13-13.63-6.91-2-14.15-1.31-19.68-.46-1.88.28-3.77.62-5.6.94a95.85,95.85,0,0,1-12.63,1.68,46.89,46.89,0,0,1-22.66-4.85c-3.17-1.56-7.14-3.7-9.71-6.42-.8-.84-1.58-1.74-2.33-2.61a33.66,33.66,0,0,0-8-7.34,18.1,18.1,0,0,0-4.48-1.94l20.95-14.32a25.5,25.5,0,0,0,6.79-6,10.39,10.39,0,0,0,1.42-10.29c-2.58-5.5-9.74-6.27-15.31-4.65-5.23,1.52-9.85,4.3-14.31,7L465,226.9c-4.72,2.76-10.31,5.6-16,5.69-4.85.08-10.59-2.41-12.15-7.32-1.08-3.38.13-7.6,3-10.49a18.27,18.27,0,0,1,11.3-4.79c.54-.05,1.08-.08,1.62-.11a22.43,22.43,0,0,0,5.37-.79c3.31-1,5.69-3.43,6.23-6.29.57-3.06-.94-6.26-4.27-9-9.16-7.59-23.5-8.27-33.35-1.59A28.33,28.33,0,0,0,415,211.71L393,173.9c-.9-1.54-2.39-4.12-5.2-5a6.39,6.39,0,0,0-5.4.84,8.56,8.56,0,0,0-3.76,6c-.45,3.66,1.24,7,2.47,9.51l15.16,30.44L370.57,188.4a2.59,2.59,0,0,0-4.09.4c-2.61,4.2-3.09,9.84-1.3,15.49,1.52,4.78,4.26,8.84,6.91,12.77l19.21,28.42-31.25-16.84c-4.18-2.25-7.81-2-9.71.63-1,1.42-1.75,3.92.58,7.75,6.46,10.65,17.43,17.7,27.21,23.46a429.63,429.63,0,0,0,56.24,27.67c7.16,2.92,14.5,5.34,21.59,7.69,2.11.7,4.22,1.4,6.34,2.12,6.46,2.18,12.17,6.48,17.7,10.64,1.84,1.39,3.75,2.83,5.67,4.17,13.53,9.49,27.78,14.47,41.22,14.4,14.24-.08,27.71-6.37,35.65-16.34A34.55,34.55,0,0,0,565.29,306.87ZM357.58,233.18,398.1,255a2.61,2.61,0,0,0,3.15-.54,2.56,2.56,0,0,0,.23-3.17l-25.09-37.13c-2.44-3.63-5-7.37-6.26-11.44a15.59,15.59,0,0,1-.56-7.86l35,37.1a2.59,2.59,0,0,0,4.22-2.91l-23-46.11c-1.26-2.53-2.2-4.62-2-6.6a3.36,3.36,0,0,1,1.43-2.26,1.21,1.21,0,0,1,1.05-.24c.87.26,1.73,1.74,2.24,2.62l27.71,47.69a2.61,2.61,0,0,0,3.31,1.06,2.58,2.58,0,0,0,1.4-3.17,23.08,23.08,0,0,1,8.72-25.59,23.32,23.32,0,0,1,27.11,1.29c1.77,1.46,2.7,3,2.49,4.09s-1.49,1.94-2.67,2.31a18.27,18.27,0,0,1-4.16.56l-1.76.13a23.42,23.42,0,0,0-14.51,6.29c-4.28,4.29-6,10.45-4.28,15.7,2.33,7.31,10.4,11,17.17,10.91s13.26-3.3,18.56-6.4l2.79-1.67c4.37-2.63,8.5-5.11,13.08-6.44,3.53-1,7.94-.72,9.15,1.87a5.33,5.33,0,0,1-.93,5.12,21.43,21.43,0,0,1-5.5,4.71l-29.1,19.88a2.57,2.57,0,0,0-.69,3.57,2.61,2.61,0,0,0,3.57.73c2.9-1.88,7.11-1,10,.76h0c2.69,1.61,4.67,3.89,6.78,6.31.79.9,1.6,1.84,2.47,2.76,3.14,3.32,7.63,5.76,11.19,7.51a52.24,52.24,0,0,0,25.18,5.38,103.14,103.14,0,0,0,13.32-1.75c1.79-.32,3.65-.65,5.47-.93,5-.76,11.51-1.42,17.44.31,5.72,1.67,10.18,5.58,11.64,10.22,1.32,4.19.35,9.49-2.66,14.55-6.36,10.7-19.7,17.68-34,17.76-15.6.09-29.39-7.26-38.2-13.45-1.85-1.3-3.72-2.71-5.54-4.07-5.85-4.41-11.9-9-19.16-11.42l-6.36-2.12c-7-2.32-14.27-4.72-21.27-7.57A422.88,422.88,0,0,1,380.78,256c-9.24-5.45-19.58-12.06-25.43-21.69a4,4,0,0,1-.78-2.07A5.45,5.45,0,0,1,357.58,233.18Z"/><path class="cls-2" d="M605.39,231.05c-3-13-11.09-25.73-23.46-36.68-1.75-1.56-3.59-3.08-5.38-4.56-5.32-4.41-10.83-9-14.43-14.73q-1.77-2.84-3.51-5.67c-3.91-6.34-8-12.89-12.43-19.18A428.08,428.08,0,0,0,506.31,102c-7.87-8.16-17.26-17.2-29.14-21-4.28-1.38-6.56-.11-7.72,1.21-2.14,2.43-1.55,6,1.6,9.55l23.59,26.46L462.46,106c-4.44-1.68-9-3.41-14.06-3.79-5.93-.45-11.34,1.3-14.85,4.78a2.58,2.58,0,0,0,.54,4.07l32.55,18.72L433.42,122c-2.7-.63-6.39-1.49-9.87-.22a8.58,8.58,0,0,0-5,5,6.31,6.31,0,0,0,.41,5.43c1.48,2.53,4.34,3.39,6,3.91l42,12.69a28.4,28.4,0,0,0-16.4,15.84c-4.29,11.07-.36,24.82,9.15,32,3.45,2.6,6.92,3.34,9.78,2.09a8.59,8.59,0,0,0,4.73-7.47,22,22,0,0,0-.45-5.39c-.09-.53-.18-1.06-.25-1.59a18,18,0,0,1,2.11-12.05c2.17-3.46,6-5.59,9.57-5.32,5.15.4,8.89,5.4,9.92,10.12,1.21,5.55-.29,11.62-1.92,16.82-.32,1-.65,2-1,3-1.6,4.94-3.27,10.05-3.56,15.46-.32,5.77,2.06,12.55,8,13.79a10.47,10.47,0,0,0,9.74-3.72,25.55,25.55,0,0,0,4.3-7.94L520,190.9a18.19,18.19,0,0,0,2.92,3.91h0a33.76,33.76,0,0,0,9,6.1c1,.53,2.07,1.08,3.08,1.67,3.24,1.87,6.24,5.23,8.49,7.95a46.43,46.43,0,0,1,9.9,20.87A95,95,0,0,1,554.64,244c.09,1.85.2,3.76.34,5.64.44,5.56,1.39,12.74,4.93,19,3.78,6.65,10.21,11.08,16.78,11.57,5.95.44,12.2-2.16,17.6-7.31a35.58,35.58,0,0,0,3.25-3.57C605.48,259.37,608.56,244.87,605.39,231.05Zm-86.63-51.18-12.82,32.74a21.43,21.43,0,0,1-3.36,6.4,5.4,5.4,0,0,1-4.79,2.07c-2.81-.58-4.12-4.79-3.92-8.45.26-4.74,1.75-9.31,3.33-14.15.33-1,.67-2,1-3.08,1.83-5.84,3.5-12.72,2-19.44s-6.91-13.58-14.59-14.17c-5.51-.43-11.16,2.6-14.37,7.72a23.11,23.11,0,0,0-2.85,15.5c.08.58.18,1.16.28,1.74a18.12,18.12,0,0,1,.39,4.16c-.09,1.23-.63,2.67-1.65,3.11s-2.74-.1-4.57-1.48a22.45,22.45,0,0,1,15.61-40.27,2.58,2.58,0,0,0,1-5l-53-16c-1-.3-2.61-.8-3.07-1.58a1.23,1.23,0,0,1,0-1.07,3.42,3.42,0,0,1,1.89-1.9c1.88-.69,4.14-.25,6.9.4l50.33,11.78a2.58,2.58,0,0,0,1.89-4.75L440.2,108.65A15.71,15.71,0,0,1,448,107.4c4.28.32,8.52,1.92,12.62,3.47l42,15.87a2.58,2.58,0,0,0,2.86-4.13l-30.58-34.3a5.5,5.5,0,0,1-1.57-2.72,4.09,4.09,0,0,1,2.21.29c10.74,3.47,19.57,12,27,19.71A421.73,421.73,0,0,1,542,153.22c4.37,6.14,8.37,12.63,12.24,18.9,1.17,1.89,2.34,3.79,3.53,5.69,4,6.47,9.88,11.3,15.52,16,1.75,1.45,3.56,2.95,5.25,4.44,8,7.14,18.38,18.83,21.85,34,3.17,13.84-.62,28.35-9.64,37-4.26,4.07-9.23,6.21-13.63,5.89-4.86-.36-9.71-3.79-12.64-9-3-5.35-3.88-11.81-4.28-16.84-.14-1.82-.24-3.7-.34-5.52a97.87,97.87,0,0,0-1.32-13.3,51.59,51.59,0,0,0-11-23.2c-2.52-3.05-5.93-6.85-9.89-9.13-1.1-.63-2.2-1.21-3.26-1.77a29.14,29.14,0,0,1-7.72-5.14h0c-2.35-2.4-4.2-6.28-3-9.52a2.59,2.59,0,0,0-4.47-2.48A2.33,2.33,0,0,0,518.76,179.87Zm6,13.13h0Z"/><ellipse class="cls-2" cx="586.75" cy="247.04" rx="3.62" ry="6.37" transform="translate(-8.8 22.03) rotate(-2.14)"/><ellipse class="cls-2" cx="575.36" cy="248.95" rx="6.37" ry="3.62" transform="translate(223.47 767.78) rotate(-79.25)"/><ellipse class="cls-2" cx="541.32" cy="293.93" rx="6.4" ry="3.6" transform="translate(-14.06 27.52) rotate(-2.87)"/><ellipse class="cls-2" cx="543.08" cy="305.29" rx="3.6" ry="6.4" transform="translate(149.83 788.51) rotate(-80.2)"/><path class="cls-2" d="M610.5,599.78c-.8-1.11-3-.87-5,.54s-2.92,3.45-2.12,4.56,3,.87,5-.54S611.29,600.9,610.5,599.78Z"/><ellipse class="cls-2" cx="616.49" cy="604.81" rx="2.47" ry="4.38" transform="translate(-234.11 754.3) rotate(-54.42)"/><path class="cls-2" d="M673.9,505.27a5.51,5.51,0,0,0-.71-6.16,4.24,4.24,0,0,0-3.86-1.07,10.66,10.66,0,0,0-7.26,5.48c-3.3,6.41-1.57,15.2,4,20.44C672.67,530.1,682,530.41,687,530a36.77,36.77,0,0,0,22.08-8.91c6.39-5.79,9.95-14.16,9.28-21.83-1-11.28-10.55-18.78-18.47-21.77-8.48-3.2-18.07-3.55-27.34-3.88l-3.9-.15-2.19-.1c-.2,3.65-1.87,7.32-3.75,10.83a230.57,230.57,0,0,1-12.56,21,5.77,5.77,0,0,1,1.7.48,4.6,4.6,0,0,1,2.64,3.21c.66,2.76-1,6.14-2.63,8.19l-17.22,21.74,34.63.34c3.38,0,7.6.08,10.9,2.94A7.3,7.3,0,0,1,682.7,549c-.55,2.83-3,6.26-11.44,6.48l-4.29.12,7.76,1.5c6.44,1.25,10,4.16,10,8.21a6.08,6.08,0,0,1-1.94,4.53c-3.2,3-9,3-10.74,2.93l-5.45-.26,9.61,2.18c2.69.61,6,2.16,7.21,4.67a4.78,4.78,0,0,1,0,4.28,6,6,0,0,1-6,3.27l-17.69-1.75a31.54,31.54,0,0,1,6.6,6.7,6,6,0,0,1-6.38,9.31l-17.39-4.49c-13.42,16.15-34.89,24.19-60.55,22.65a103.67,103.67,0,0,1-32.78-7.76,144.19,144.19,0,0,1-30.32-17.11c-18.45-13.41-34.21-30.25-49.46-46.54l-19.2-20.51a5,5,0,0,1,4.68-8.22,70.87,70.87,0,0,1,16.85,6.07l-14.38-18c-3.65-4.57-4.37-8.63-2-11.43a5.53,5.53,0,0,1,4.17-2c3.31-.1,6.88,2.39,9.13,4.75l16.91,17.76-9.65-22.68c-1.46-3.46-3.29-7.75-1.49-12.32a7.24,7.24,0,0,1,5.91-4.64c5.55-.59,8.33,5.4,9.38,7.65l8.57,18.44a63.41,63.41,0,0,1-.06-20.11,5.53,5.53,0,0,1,5.08-4.59,5.64,5.64,0,0,1,3,.6,91,91,0,0,1,11.39-55.44,8,8,0,0,1,0-3.19c1.27-6.52,8.79-8.12,15.68-6.81a380.47,380.47,0,0,1,124,47c3.2,1.91,6.72,4.26,8.25,8.16,1,.06,2.1.1,3.16.15l3.87.15c9.67.34,19.67.7,28.91,4.19,12.16,4.6,20.67,14.8,21.65,26,.8,9.18-3.37,19.12-10.89,25.93-6.48,5.87-15.37,9.48-25,10.18-10,.72-18.75-1.91-24.63-7.41-7.16-6.7-9.34-18-5.06-26.32a15.65,15.65,0,0,1,10.89-8.09,9.15,9.15,0,0,1,8.13,2.46,10.39,10.39,0,0,1,1.59,11.95,10.06,10.06,0,0,1-10.75,5.3l1.05-4.83A5.2,5.2,0,0,0,673.9,505.27ZM522.57,421.15l1,.67a4.3,4.3,0,0,1,.54-.61c1.24-1.15,3.16-1.08,4.84-.87,10.57,1.27,20.75,4.7,30.81,8.18q37.37,12.94,74.22,27.29c5.21,2,10.45,4.1,15.12,7.18a8.86,8.86,0,0,1,3.13,3,4.16,4.16,0,0,1,.43,1.43c2.33.23,4.67.44,7,.61a21.42,21.42,0,0,0-4.79-3.54,375.39,375.39,0,0,0-122.42-46.39c-3.62-.69-9.24-.49-9.9,2.9C522.58,421.05,522.58,421.1,522.57,421.15Zm-7.92,72.32a72.48,72.48,0,0,0,7.9,16.24,62.55,62.55,0,0,1,2.77-5.86,8.28,8.28,0,0,1,15.45,5.34c-.51,3-1.22,6-1.91,9-.64,2.71-1.26,5.36-1.73,8a66.65,66.65,0,0,0,26.33,13.42c21,5.21,44.57-.39,62.53-14.63l8.76-8.13c9.88-10.5,17.43-23.34,23.6-34.87,1.6-3,3-6,3.17-8.78A311.45,311.45,0,0,1,525.13,431.6a22.14,22.14,0,0,1-4.5-3.36C510,448.27,507.65,472.66,514.65,493.47ZM638.38,595.62,633,594.23c-29.26-7.55-62.41-16.12-87.76-36.78-3.9-3.19-8.22-7.16-10.62-12.43-2.16-4.76-2.49-9.77-2-14.84a1.94,1.94,0,0,1,.06-.59,106.22,106.22,0,0,1,2.39-12.32c.68-2.88,1.38-5.86,1.87-8.73a4.43,4.43,0,0,0-8.26-2.86,57.35,57.35,0,0,0-5.89,16.55,1.93,1.93,0,0,1-3.72.27l-13.63-39.37a1.73,1.73,0,0,0-1.84-1.2,1.7,1.7,0,0,0-1.6,1.43c-1.91,10.69.35,22.24,3.06,34.12a1.93,1.93,0,0,1-3.63,1.24L486.23,486c-1.82-3.92-3.56-5.65-5.47-5.44a3.41,3.41,0,0,0-2.73,2.21c-1.14,2.88-.11,5.71,1.45,9.4l13.8,32.46a1.92,1.92,0,0,1-3.17,2.08l-24.23-25.45c-2-2.14-4.6-3.61-6.22-3.56a1.69,1.69,0,0,0-1.34.65c-1.51,1.78,1.21,5.46,2.08,6.55l21.3,26.65a1.93,1.93,0,0,1-.12,2.54,1.91,1.91,0,0,1-2.53.21,66.67,66.67,0,0,0-25-11.31,1,1,0,0,0-1.18.52,1.06,1.06,0,0,0,.15,1.3l19.2,20.51c15.12,16.15,30.75,32.85,48.91,46.05,20.09,14.61,41.2,23,61.06,24.14C605.87,616.91,625.7,609.86,638.38,595.62Zm9.71-86L620.75,535c-14.13,13.12-34,14.37-44.5,14a69.7,69.7,0,0,1-40-14.92,22.17,22.17,0,0,0,1.86,9.37c2.07,4.55,6,8.14,9.55,11,24.69,20.13,57.41,28.58,86.28,36l26.91,7a2.13,2.13,0,0,0,2.34-.89,2.07,2.07,0,0,0,0-2.42,27.28,27.28,0,0,0-13.89-10,1.93,1.93,0,0,1,.76-3.76l27.71,2.75A2.1,2.1,0,0,0,679.9,582a.94.94,0,0,0,.05-.93c-.48-1-2.45-2.1-4.6-2.59L644.3,571.4a1.93,1.93,0,0,1,.52-3.8l27.42,1.33c3.37.17,6.54-.58,7.89-1.87a2.27,2.27,0,0,0,.75-1.73c0-2.8-4.82-4-6.88-4.43l-25.06-4.85a1.93,1.93,0,0,1,.32-3.82l21.9-.59c3.26-.09,7.25-.74,7.76-3.36a3.48,3.48,0,0,0-1.27-3.21c-2.23-1.93-5.38-2-8.42-2l-38.56-.38a1.93,1.93,0,0,1-1.49-3.13l19.66-24.82c1.32-1.67,2.16-3.83,1.9-4.91a.78.78,0,0,0-.52-.6A2,2,0,0,0,648.09,509.65Z"/><path class="cls-2" d="M21.57,175.28a19,19,0,0,1-16-8.06c-3.52-5.07-3.27-10.87.7-15.93,5.4-6.88,16.14-10.59,23-8,4.47,1.73,6.81,5.81,6.43,11.2L35.42,158l-10,.1-.08-7.48,1.79,0a3.68,3.68,0,0,0-.54-.26c-3.39-1.3-10.85,1.07-14.41,5.6-2.53,3.23-1.46,5.56-.44,7,3.94,5.67,10.37,5.18,13.85,4.39,7.38-1.68,16-8.23,17.41-17.05,2-12.69-4.41-26.56-19.74-42.4q-2.36-2.43-4.79-4.87C7.38,91.86-4,80.33-8,64.76-10.87,53.82-7.62,40.7,0,32.12c5.76-6.45,13.18-9.4,20.9-8.32,11.53,1.61,18.46,10.63,25.16,19.35,4,5.22,8.15,10.62,13.13,14.08L55,63.37c-5.93-4.13-10.44-10-14.79-15.66-6-7.88-11.77-15.31-20.27-16.5C13.28,30.29,8.47,33.9,5.62,37.1-.36,43.79-3,54.4-.81,62.89,2.7,76.5,13.4,87.3,23.74,97.74c1.63,1.65,3.26,3.29,4.85,4.94,17.08,17.65,24.19,33.61,21.74,48.79-2,12.19-13.12,20.87-23.13,23.15A25.32,25.32,0,0,1,21.57,175.28Z"/><path class="cls-2" d="M97,243.08l-34.56-6.66A844.67,844.67,0,0,1,65.05,24.17C116.44,41,171,41.3,222.58,40.05c10.55-.25,17-4.14,17.72-10.68.73-6.74-5.47-11.44-11.5-13.6-10.38-3.69-21.28-4.1-31.83-4.5C152.84,9.62,107.2,7.9,62.55,14.5l-2.2.32L60,17a850.42,850.42,0,0,0-3.3,222.27l.26,2.17L95.85,249ZM196.74,17.26c10.1.38,20.54.77,30,4.15,4,1.43,7.89,4.24,7.56,7.32-.53,4.83-10,5.3-11.91,5.34-50,1.19-102.78,1-152.36-14.57C112.07,14.07,155.08,15.69,196.74,17.26Z"/><polygon class="cls-2" points="211.13 177.53 205.26 176.37 234.73 27.66 240.6 28.82 211.13 177.53"/><path class="cls-2" d="M312,106.87l-.24.19c6.23,25.2-1.52,52.47-21.87,76.88a128.2,128.2,0,0,1-31.78,26.93,178.06,178.06,0,0,1-39.27,17.62c-26.89,8.52-55.21,11.86-82.61,15.08l-34.49,4.06a6.13,6.13,0,0,1-4.76-10.69,87.68,87.68,0,0,1,18.41-12.31l-28.45,1.11c-7.24.28-11.81-2-12.86-6.39a6.84,6.84,0,0,1,1.06-5.63c2.32-3.36,7.42-5.1,11.42-5.6l30.08-3.8-29.65-7c-4.51-1.07-10.13-2.41-13.36-7.56a8.94,8.94,0,0,1-.27-9.27c3.48-6,11.48-4.34,14.49-3.73l24.64,5C104.9,177.65,98,173,92.38,167a7,7,0,0,1,7.16-11.42l41.51,12.92a76,76,0,0,1-7.73-12.92A10.24,10.24,0,0,1,150,144.14c2.6,2.7,5.11,5.64,7.52,8.49s5,5.82,7.5,8.44a11.34,11.34,0,0,0,7,5.63c-.18,0-.35.1-.52.15a27.42,27.42,0,0,0,10.68,5c6,1.28,12.49,0,18-1.41,38.15-9.8,70.57-36.16,99.17-59.42l9-7.3C309.55,104.86,310.76,105.94,312,106.87Zm-4.36,3.55-5.31,4.31c-29,23.58-61.83,50.29-101,60.35-6,1.55-13.15,2.94-20.17,1.45-6.32-1.34-11.55-4.68-16.22-8.9a2.33,2.33,0,0,1-.54-.5,131.17,131.17,0,0,1-10.51-11.41c-2.37-2.79-4.82-5.68-7.32-8.27a5.48,5.48,0,0,0-8.9,6.12,70.83,70.83,0,0,0,12.14,18,2.39,2.39,0,0,1-2.46,3.9L98.13,160.16a2.15,2.15,0,0,0-2.55,1,2.1,2.1,0,0,0,.26,2.63c9.23,9.75,22.39,16,36.19,22a2.38,2.38,0,0,1-1.42,4.52l-43.76-8.87c-5.23-1.06-8.23-.59-9.43,1.46a4.24,4.24,0,0,0,.2,4.34c2,3.24,5.6,4.3,10.42,5.45l42.44,10.08a2.39,2.39,0,0,1-.26,4.69l-43.11,5.44c-3.63.45-7,1.93-8.1,3.58a2.1,2.1,0,0,0-.35,1.81c.68,2.8,6.33,2.8,8,2.73l42.15-1.64a2.39,2.39,0,0,1,.8,4.66,82.38,82.38,0,0,0-29.59,16.55,1.28,1.28,0,0,0-.34,1.55,1.3,1.3,0,0,0,1.4.81l34.5-4.06c27.17-3.2,55.26-6.51,81.72-14.89,29.27-9.28,53.07-24.17,68.82-43.06C304.93,158.39,312.47,133.49,307.59,110.42Z"/><ellipse class="cls-2" cx="291.21" cy="146.63" rx="3.06" ry="5.41" transform="translate(-2.07 4.18) rotate(-0.82)"/><ellipse class="cls-2" cx="300.68" cy="138.95" rx="3.06" ry="5.41" transform="translate(-1.95 4.31) rotate(-0.82)"/><path class="cls-2" d="M215.39,149h0v-5.92h0c19.84,0,42.4-12.94,57.48-33,7.79-10.35,12.52-22.27,17.54-34.89,2.93-7.39,6-15,9.66-22.26,8.22-16.09,19.36-25.3,31.38-25.93.48,0,1,0,1.45-.05a8.87,8.87,0,0,0,4.12-.68.7.7,0,0,0,.18-.17c-11.48,1-25.37,3.45-35.72,11.5-8.59,6.69-14.22,16.79-19.66,26.56l-1,1.87c-6.47,11.58-13.78,23.71-23.36,34a66.3,66.3,0,0,1-34.31,20.07l-1.39-5.75A60.69,60.69,0,0,0,253.1,96c9.15-9.8,16.23-21.56,22.51-32.81l1.05-1.87c5.72-10.29,11.65-20.92,21.19-28.35C310.09,23.41,326.22,21,338.91,20l.8-.06.72.35a5.36,5.36,0,0,1,3,4.65,7.23,7.23,0,0,1-3.29,6.35c-2.32,1.43-4.85,1.5-7.07,1.55l-1.29.05c-13.25.69-22.24,14.53-26.42,22.72-3.56,7-6.55,14.48-9.43,21.75-4.94,12.43-10.05,25.28-18.31,36.26C261.44,135.12,237,149,215.39,149Z"/><path class="cls-2" d="M-40.43,505.27a5.51,5.51,0,0,0-.71-6.16A4.25,4.25,0,0,0-45,498a10.67,10.67,0,0,0-7.25,5.48c-3.3,6.41-1.57,15.2,4,20.44,6.56,6.14,15.9,6.45,20.89,6.08a36.77,36.77,0,0,0,22.08-8.91C1.14,515.34,4.7,507,4,499.3,3,488-6.52,480.52-14.44,477.53c-8.48-3.2-18.07-3.55-27.34-3.88l-3.9-.15-2.19-.1c-.2,3.65-1.87,7.32-3.75,10.83a228.48,228.48,0,0,1-12.57,21,5.6,5.6,0,0,1,1.7.48A4.59,4.59,0,0,1-59.84,509c.66,2.76-1,6.14-2.63,8.19l-17.22,21.74,34.63.34c3.38,0,7.6.08,10.9,2.94A7.3,7.3,0,0,1-31.63,549c-.55,2.83-3,6.26-11.44,6.48l-4.29.12,7.76,1.5c6.44,1.25,10,4.16,10,8.21a6.08,6.08,0,0,1-1.94,4.53c-3.2,3-9,3-10.74,2.93l-5.45-.26,9.61,2.18c2.69.61,6,2.16,7.21,4.67a4.78,4.78,0,0,1,0,4.28,6,6,0,0,1-6,3.27l-17.69-1.75a31.54,31.54,0,0,1,6.6,6.7,5.89,5.89,0,0,1,.1,6.86,6,6,0,0,1-6.48,2.45l-17.39-4.49c-13.42,16.15-34.89,24.19-60.55,22.65a103.67,103.67,0,0,1-32.78-7.76,144.19,144.19,0,0,1-30.32-17.11c-18.45-13.41-34.21-30.25-49.46-46.54l-19.2-20.51a4.88,4.88,0,0,1-.68-5.84,4.86,4.86,0,0,1,5.36-2.38,70.87,70.87,0,0,1,16.85,6.07l-14.38-18c-3.65-4.57-4.37-8.63-2-11.43a5.52,5.52,0,0,1,4.17-2c3.31-.1,6.88,2.39,9.13,4.75l16.91,17.76-9.65-22.68c-1.46-3.46-3.29-7.75-1.49-12.32A7.24,7.24,0,0,1-234,476.7c5.55-.59,8.33,5.4,9.38,7.65l8.57,18.44a63.41,63.41,0,0,1-.06-20.11,5.53,5.53,0,0,1,5.08-4.59,5.64,5.64,0,0,1,3,.6,91,91,0,0,1,11.39-55.44,7.79,7.79,0,0,1,0-3.19c1.26-6.52,8.79-8.12,15.68-6.81a380.47,380.47,0,0,1,124,47c3.2,1.91,6.72,4.26,8.25,8.16,1.05.06,2.1.1,3.16.15l3.87.15c9.67.34,19.67.7,28.91,4.19C-.53,477.5,8,487.7,9,498.87c.8,9.18-3.37,19.12-10.89,25.93-6.48,5.87-15.37,9.48-25,10.18-10,.72-18.76-1.91-24.63-7.41-7.16-6.7-9.34-18-5.06-26.32a15.65,15.65,0,0,1,10.89-8.09,9.16,9.16,0,0,1,8.13,2.46A10.39,10.39,0,0,1-36,507.57a10.06,10.06,0,0,1-10.75,5.3l1-4.83A5.2,5.2,0,0,0-40.43,505.27Zm-151.33-84.12,1,.67a4.3,4.3,0,0,1,.54-.61c1.24-1.15,3.15-1.08,4.83-.87,10.58,1.27,20.76,4.7,30.82,8.18q37.36,12.94,74.22,27.29c5.21,2,10.45,4.1,15.12,7.18a8.86,8.86,0,0,1,3.13,3,4.16,4.16,0,0,1,.43,1.43c2.33.23,4.67.44,7,.61a21.42,21.42,0,0,0-4.79-3.54,375.39,375.39,0,0,0-122.42-46.39c-3.62-.69-9.24-.49-9.9,2.9A.59.59,0,0,0-191.76,421.15Zm-7.92,72.32a72.48,72.48,0,0,0,7.9,16.24,62.55,62.55,0,0,1,2.77-5.86A8.06,8.06,0,0,1-179,500a8.09,8.09,0,0,1,5.48,9.23c-.51,3-1.22,6-1.91,9-.64,2.71-1.26,5.36-1.73,8a66.65,66.65,0,0,0,26.33,13.42c21,5.21,44.57-.39,62.53-14.63l8.76-8.13c9.88-10.5,17.43-23.34,23.6-34.87,1.6-3,3-6,3.17-8.78A311.45,311.45,0,0,1-189.2,431.6a22.14,22.14,0,0,1-4.5-3.36C-204.33,448.27-206.68,472.66-199.68,493.47ZM-75.95,595.62l-5.36-1.39c-29.26-7.55-62.42-16.12-87.76-36.78-3.9-3.19-8.22-7.16-10.62-12.43-2.16-4.76-2.49-9.77-2-14.84a1.94,1.94,0,0,1,.06-.59,106.22,106.22,0,0,1,2.39-12.32c.68-2.88,1.38-5.86,1.87-8.73a4.29,4.29,0,0,0-2.94-4.93,4.26,4.26,0,0,0-5.32,2.07,57.35,57.35,0,0,0-5.89,16.55,1.94,1.94,0,0,1-1.76,1.56,1.94,1.94,0,0,1-2-1.29l-13.63-39.37a1.74,1.74,0,0,0-1.85-1.2,1.7,1.7,0,0,0-1.59,1.43c-1.91,10.69.35,22.24,3.06,34.12a1.94,1.94,0,0,1-1.26,2.25,1.93,1.93,0,0,1-2.37-1L-228.1,486c-1.82-3.92-3.56-5.65-5.47-5.44a3.41,3.41,0,0,0-2.73,2.21c-1.14,2.88-.11,5.71,1.45,9.4l13.8,32.46a1.92,1.92,0,0,1-.71,2.37,1.93,1.93,0,0,1-2.46-.29l-24.23-25.45c-2-2.14-4.6-3.61-6.22-3.56a1.69,1.69,0,0,0-1.34.65c-1.51,1.78,1.21,5.46,2.07,6.55l21.3,26.65a1.92,1.92,0,0,1-.11,2.54,1.93,1.93,0,0,1-2.54.21,65.84,65.84,0,0,0-14.28-8A65.53,65.53,0,0,0-260.26,523a1,1,0,0,0-1.17.52,1.06,1.06,0,0,0,.15,1.3l19.2,20.51c15.12,16.15,30.75,32.85,48.91,46.05,20.09,14.61,41.2,23,61.06,24.14C-108.47,616.91-88.63,609.86-75.95,595.62Zm9.71-86L-93.58,535c-14.13,13.12-33.95,14.37-44.5,14a69.7,69.7,0,0,1-40-14.92,22.17,22.17,0,0,0,1.86,9.37c2.07,4.55,6,8.14,9.55,11,24.69,20.13,57.41,28.58,86.28,36l26.91,7a2.11,2.11,0,0,0,2.33-.89,2,2,0,0,0,0-2.42A27.25,27.25,0,0,0-65,584.1a1.93,1.93,0,0,1-1.32-2.23,1.91,1.91,0,0,1,2.08-1.53l27.71,2.75A2.1,2.1,0,0,0-34.43,582a.94.94,0,0,0,0-.93c-.48-1-2.45-2.1-4.6-2.59L-70,571.4a1.92,1.92,0,0,1-1.48-2.14,1.92,1.92,0,0,1,2-1.66l27.42,1.33c3.37.17,6.54-.58,7.89-1.87a2.27,2.27,0,0,0,.75-1.73c0-2.8-4.82-4-6.88-4.43l-25.06-4.85a1.93,1.93,0,0,1-1.55-2,1.92,1.92,0,0,1,1.87-1.77l21.89-.59c3.27-.09,7.26-.74,7.77-3.36a3.48,3.48,0,0,0-1.27-3.21c-2.24-1.93-5.38-2-8.42-2l-38.56-.38a1.94,1.94,0,0,1-1.72-1.1,1.92,1.92,0,0,1,.23-2l19.66-24.82c1.32-1.67,2.16-3.83,1.9-4.91a.78.78,0,0,0-.52-.6A2,2,0,0,0-66.24,509.65Z"/></pattern></defs><title>зелений візерунок</title><rect class="cls-3" width="568.96" height="570.37"/></svg>